<svg width="240" height="240" viewBox="0 0 240 240" fill="none" xmlns="http://www.w3.org/2000/svg">
<g id="QR Code">
<rect width="240" height="240" fill="white"/>
<path id="Vector" d="M13.6172 13.6172H22.1278V22.1278H13.6172V13.6172ZM22.1278 13.6172H30.6385V22.1278H22.1278V13.6172ZM30.6385 13.6172H39.1491V22.1278H30.6385V13.6172ZM39.1491 13.6172H47.6597V22.1278H39.1491V13.6172ZM47.6597 13.6172H56.1704V22.1278H47.6597V13.6172ZM56.1704 13.6172H64.681V22.1278H56.1704V13.6172ZM64.681 13.6172H73.1917V22.1278H64.681V13.6172ZM107.234 13.6172H115.745V22.1278H107.234V13.6172ZM132.766 13.6172H141.277V22.1278H132.766V13.6172ZM141.277 13.6172H149.787V22.1278H141.277V13.6172ZM149.787 13.6172H158.298V22.1278H149.787V13.6172ZM166.809 13.6172H175.319V22.1278H166.809V13.6172ZM175.319 13.6172H183.83V22.1278H175.319V13.6172ZM183.83 13.6172H192.341V22.1278H183.83V13.6172ZM192.341 13.6172H200.851V22.1278H192.341V13.6172ZM200.851 13.6172H209.362V22.1278H200.851V13.6172ZM209.362 13.6172H217.873V22.1278H209.362V13.6172ZM217.873 13.6172H226.383V22.1278H217.873V13.6172ZM13.6172 22.1278H22.1278V30.6385H13.6172V22.1278ZM64.681 22.1278H73.1917V30.6385H64.681V22.1278ZM90.2129 22.1278H98.7236V30.6385H90.2129V22.1278ZM124.255 22.1278H132.766V30.6385H124.255V22.1278ZM132.766 22.1278H141.277V30.6385H132.766V22.1278ZM149.787 22.1278H158.298V30.6385H149.787V22.1278ZM166.809 22.1278H175.319V30.6385H166.809V22.1278ZM217.873 22.1278H226.383V30.6385H217.873V22.1278ZM13.6172 30.6385H22.1278V39.1491H13.6172V30.6385ZM30.6385 30.6385H39.1491V39.1491H30.6385V30.6385ZM39.1491 30.6385H47.6597V39.1491H39.1491V30.6385ZM47.6597 30.6385H56.1704V39.1491H47.6597V30.6385ZM64.681 30.6385H73.1917V39.1491H64.681V30.6385ZM90.2129 30.6385H98.7236V39.1491H90.2129V30.6385ZM98.7236 30.6385H107.234V39.1491H98.7236V30.6385ZM115.745 30.6385H124.255V39.1491H115.745V30.6385ZM132.766 30.6385H141.277V39.1491H132.766V30.6385ZM141.277 30.6385H149.787V39.1491H141.277V30.6385ZM166.809 30.6385H175.319V39.1491H166.809V30.6385ZM183.83 30.6385H192.341V39.1491H183.83V30.6385ZM192.341 30.6385H200.851V39.1491H192.341V30.6385ZM200.851 30.6385H209.362V39.1491H200.851V30.6385ZM217.873 30.6385H226.383V39.1491H217.873V30.6385ZM13.6172 39.1491H22.1278V47.6597H13.6172V39.1491ZM30.6385 39.1491H39.1491V47.6597H30.6385V39.1491ZM39.1491 39.1491H47.6597V47.6597H39.1491V39.1491ZM47.6597 39.1491H56.1704V47.6597H47.6597V39.1491ZM64.681 39.1491H73.1917V47.6597H64.681V39.1491ZM81.7023 39.1491H90.2129V47.6597H81.7023V39.1491ZM90.2129 39.1491H98.7236V47.6597H90.2129V39.1491ZM115.745 39.1491H124.255V47.6597H115.745V39.1491ZM132.766 39.1491H141.277V47.6597H132.766V39.1491ZM141.277 39.1491H149.787V47.6597H141.277V39.1491ZM166.809 39.1491H175.319V47.6597H166.809V39.1491ZM183.83 39.1491H192.341V47.6597H183.83V39.1491ZM192.341 39.1491H200.851V47.6597H192.341V39.1491ZM200.851 39.1491H209.362V47.6597H200.851V39.1491ZM217.873 39.1491H226.383V47.6597H217.873V39.1491ZM13.6172 47.6597H22.1278V56.1704H13.6172V47.6597ZM30.6385 47.6597H39.1491V56.1704H30.6385V47.6597ZM39.1491 47.6597H47.6597V56.1704H39.1491V47.6597ZM47.6597 47.6597H56.1704V56.1704H47.6597V47.6597ZM64.681 47.6597H73.1917V56.1704H64.681V47.6597ZM98.7236 47.6597H107.234V56.1704H98.7236V47.6597ZM107.234 47.6597H115.745V56.1704H107.234V47.6597ZM115.745 47.6597H124.255V56.1704H115.745V47.6597ZM124.255 47.6597H132.766V56.1704H124.255V47.6597ZM132.766 47.6597H141.277V56.1704H132.766V47.6597ZM166.809 47.6597H175.319V56.1704H166.809V47.6597ZM183.83 47.6597H192.341V56.1704H183.83V47.6597ZM192.341 47.6597H200.851V56.1704H192.341V47.6597ZM200.851 47.6597H209.362V56.1704H200.851V47.6597ZM217.873 47.6597H226.383V56.1704H217.873V47.6597ZM13.6172 56.1704H22.1278V64.681H13.6172V56.1704ZM64.681 56.1704H73.1917V64.681H64.681V56.1704ZM81.7023 56.1704H90.2129V64.681H81.7023V56.1704ZM107.234 56.1704H115.745V64.681H107.234V56.1704ZM149.787 56.1704H158.298V64.681H149.787V56.1704ZM166.809 56.1704H175.319V64.681H166.809V56.1704ZM217.873 56.1704H226.383V64.681H217.873V56.1704ZM13.6172 64.681H22.1278V73.1917H13.6172V64.681ZM22.1278 64.681H30.6385V73.1917H22.1278V64.681ZM30.6385 64.681H39.1491V73.1917H30.6385V64.681ZM39.1491 64.681H47.6597V73.1917H39.1491V64.681ZM47.6597 64.681H56.1704V73.1917H47.6597V64.681ZM56.1704 64.681H64.681V73.1917H56.1704V64.681ZM64.681 64.681H73.1917V73.1917H64.681V64.681ZM81.7023 64.681H90.2129V73.1917H81.7023V64.681ZM98.7236 64.681H107.234V73.1917H98.7236V64.681ZM115.745 64.681H124.255V73.1917H115.745V64.681ZM132.766 64.681H141.277V73.1917H132.766V64.681ZM149.787 64.681H158.298V73.1917H149.787V64.681ZM166.809 64.681H175.319V73.1917H166.809V64.681ZM175.319 64.681H183.83V73.1917H175.319V64.681ZM183.83 64.681H192.341V73.1917H183.83V64.681ZM192.341 64.681H200.851V73.1917H192.341V64.681ZM200.851 64.681H209.362V73.1917H200.851V64.681ZM209.362 64.681H217.873V73.1917H209.362V64.681ZM217.873 64.681H226.383V73.1917H217.873V64.681ZM81.7023 73.1917H90.2129V81.7023H81.7023V73.1917ZM90.2129 73.1917H98.7236V81.7023H90.2129V73.1917ZM98.7236 73.1917H107.234V81.7023H98.7236V73.1917ZM132.766 73.1917H141.277V81.7023H132.766V73.1917ZM141.277 73.1917H149.787V81.7023H141.277V73.1917ZM149.787 73.1917H158.298V81.7023H149.787V73.1917ZM22.1278 81.7023H30.6385V90.2129H22.1278V81.7023ZM30.6385 81.7023H39.1491V90.2129H30.6385V81.7023ZM64.681 81.7023H73.1917V90.2129H64.681V81.7023ZM124.255 81.7023H132.766V90.2129H124.255V81.7023ZM132.766 81.7023H141.277V90.2129H132.766V81.7023ZM149.787 81.7023H158.298V90.2129H149.787V81.7023ZM166.809 81.7023H175.319V90.2129H166.809V81.7023ZM175.319 81.7023H183.83V90.2129H175.319V81.7023ZM192.341 81.7023H200.851V90.2129H192.341V81.7023ZM22.1278 90.2129H30.6385V98.7236H22.1278V90.2129ZM30.6385 90.2129H39.1491V98.7236H30.6385V90.2129ZM47.6597 90.2129H56.1704V98.7236H47.6597V90.2129ZM73.1917 90.2129H81.7023V98.7236H73.1917V90.2129ZM98.7236 90.2129H107.234V98.7236H98.7236V90.2129ZM107.234 90.2129H115.745V98.7236H107.234V90.2129ZM115.745 90.2129H124.255V98.7236H115.745V90.2129ZM124.255 90.2129H132.766V98.7236H124.255V90.2129ZM132.766 90.2129H141.277V98.7236H132.766V90.2129ZM141.277 90.2129H149.787V98.7236H141.277V90.2129ZM149.787 90.2129H158.298V98.7236H149.787V90.2129ZM166.809 90.2129H175.319V98.7236H166.809V90.2129ZM175.319 90.2129H183.83V98.7236H175.319V90.2129ZM192.341 90.2129H200.851V98.7236H192.341V90.2129ZM209.362 90.2129H217.873V98.7236H209.362V90.2129ZM217.873 90.2129H226.383V98.7236H217.873V90.2129ZM64.681 98.7236H73.1917V107.234H64.681V98.7236ZM107.234 98.7236H115.745V107.234H107.234V98.7236ZM141.277 98.7236H149.787V107.234H141.277V98.7236ZM158.298 98.7236H166.809V107.234H158.298V98.7236ZM175.319 98.7236H183.83V107.234H175.319V98.7236ZM192.341 98.7236H200.851V107.234H192.341V98.7236ZM200.851 98.7236H209.362V107.234H200.851V98.7236ZM217.873 98.7236H226.383V107.234H217.873V98.7236ZM13.6172 107.234H22.1278V115.745H13.6172V107.234ZM22.1278 107.234H30.6385V115.745H22.1278V107.234ZM47.6597 107.234H56.1704V115.745H47.6597V107.234ZM73.1917 107.234H81.7023V115.745H73.1917V107.234ZM90.2129 107.234H98.7236V115.745H90.2129V107.234ZM98.7236 107.234H107.234V115.745H98.7236V107.234ZM124.255 107.234H132.766V115.745H124.255V107.234ZM141.277 107.234H149.787V115.745H141.277V107.234ZM158.298 107.234H166.809V115.745H158.298V107.234ZM175.319 107.234H183.83V115.745H175.319V107.234ZM192.341 107.234H200.851V115.745H192.341V107.234ZM13.6172 115.745H22.1278V124.255H13.6172V115.745ZM22.1278 115.745H30.6385V124.255H22.1278V115.745ZM39.1491 115.745H47.6597V124.255H39.1491V115.745ZM64.681 115.745H73.1917V124.255H64.681V115.745ZM73.1917 115.745H81.7023V124.255H73.1917V115.745ZM81.7023 115.745H90.2129V124.255H81.7023V115.745ZM90.2129 115.745H98.7236V124.255H90.2129V115.745ZM98.7236 115.745H107.234V124.255H98.7236V115.745ZM124.255 115.745H132.766V124.255H124.255V115.745ZM141.277 115.745H149.787V124.255H141.277V115.745ZM149.787 115.745H158.298V124.255H149.787V115.745ZM166.809 115.745H175.319V124.255H166.809V115.745ZM175.319 115.745H183.83V124.255H175.319V115.745ZM217.873 115.745H226.383V124.255H217.873V115.745ZM30.6385 124.255H39.1491V132.766H30.6385V124.255ZM39.1491 124.255H47.6597V132.766H39.1491V124.255ZM47.6597 124.255H56.1704V132.766H47.6597V124.255ZM98.7236 124.255H107.234V132.766H98.7236V124.255ZM107.234 124.255H115.745V132.766H107.234V124.255ZM115.745 124.255H124.255V132.766H115.745V124.255ZM141.277 124.255H149.787V132.766H141.277V124.255ZM149.787 124.255H158.298V132.766H149.787V124.255ZM166.809 124.255H175.319V132.766H166.809V124.255ZM175.319 124.255H183.83V132.766H175.319V124.255ZM209.362 124.255H217.873V132.766H209.362V124.255ZM217.873 124.255H226.383V132.766H217.873V124.255ZM13.6172 132.766H22.1278V141.277H13.6172V132.766ZM22.1278 132.766H30.6385V141.277H22.1278V132.766ZM39.1491 132.766H47.6597V141.277H39.1491V132.766ZM56.1704 132.766H64.681V141.277H56.1704V132.766ZM64.681 132.766H73.1917V141.277H64.681V132.766ZM81.7023 132.766H90.2129V141.277H81.7023V132.766ZM90.2129 132.766H98.7236V141.277H90.2129V132.766ZM98.7236 132.766H107.234V141.277H98.7236V132.766ZM115.745 132.766H124.255V141.277H115.745V132.766ZM141.277 132.766H149.787V141.277H141.277V132.766ZM149.787 132.766H158.298V141.277H149.787V132.766ZM166.809 132.766H175.319V141.277H166.809V132.766ZM192.341 132.766H200.851V141.277H192.341V132.766ZM200.851 132.766H209.362V141.277H200.851V132.766ZM217.873 132.766H226.383V141.277H217.873V132.766ZM30.6385 141.277H39.1491V149.787H30.6385V141.277ZM39.1491 141.277H47.6597V149.787H39.1491V141.277ZM47.6597 141.277H56.1704V149.787H47.6597V141.277ZM73.1917 141.277H81.7023V149.787H73.1917V141.277ZM98.7236 141.277H107.234V149.787H98.7236V141.277ZM132.766 141.277H141.277V149.787H132.766V141.277ZM141.277 141.277H149.787V149.787H141.277V141.277ZM149.787 141.277H158.298V149.787H149.787V141.277ZM158.298 141.277H166.809V149.787H158.298V141.277ZM166.809 141.277H175.319V149.787H166.809V141.277ZM175.319 141.277H183.83V149.787H175.319V141.277ZM183.83 141.277H192.341V149.787H183.83V141.277ZM192.341 141.277H200.851V149.787H192.341V141.277ZM13.6172 149.787H22.1278V158.298H13.6172V149.787ZM22.1278 149.787H30.6385V158.298H22.1278V149.787ZM30.6385 149.787H39.1491V158.298H30.6385V149.787ZM47.6597 149.787H56.1704V158.298H47.6597V149.787ZM64.681 149.787H73.1917V158.298H64.681V149.787ZM81.7023 149.787H90.2129V158.298H81.7023V149.787ZM107.234 149.787H115.745V158.298H107.234V149.787ZM149.787 149.787H158.298V158.298H149.787V149.787ZM158.298 149.787H166.809V158.298H158.298V149.787ZM166.809 149.787H175.319V158.298H166.809V149.787ZM175.319 149.787H183.83V158.298H175.319V149.787ZM183.83 149.787H192.341V158.298H183.83V149.787ZM209.362 149.787H217.873V158.298H209.362V149.787ZM81.7023 158.298H90.2129V166.809H81.7023V158.298ZM90.2129 158.298H98.7236V166.809H90.2129V158.298ZM98.7236 158.298H107.234V166.809H98.7236V158.298ZM107.234 158.298H115.745V166.809H107.234V158.298ZM124.255 158.298H132.766V166.809H124.255V158.298ZM132.766 158.298H141.277V166.809H132.766V158.298ZM149.787 158.298H158.298V166.809H149.787V158.298ZM183.83 158.298H192.341V166.809H183.83V158.298ZM217.873 158.298H226.383V166.809H217.873V158.298ZM13.6172 166.809H22.1278V175.319H13.6172V166.809ZM22.1278 166.809H30.6385V175.319H22.1278V166.809ZM30.6385 166.809H39.1491V175.319H30.6385V166.809ZM39.1491 166.809H47.6597V175.319H39.1491V166.809ZM47.6597 166.809H56.1704V175.319H47.6597V166.809ZM56.1704 166.809H64.681V175.319H56.1704V166.809ZM64.681 166.809H73.1917V175.319H64.681V166.809ZM98.7236 166.809H107.234V175.319H98.7236V166.809ZM107.234 166.809H115.745V175.319H107.234V166.809ZM132.766 166.809H141.277V175.319H132.766V166.809ZM149.787 166.809H158.298V175.319H149.787V166.809ZM166.809 166.809H175.319V175.319H166.809V166.809ZM183.83 166.809H192.341V175.319H183.83V166.809ZM217.873 166.809H226.383V175.319H217.873V166.809ZM13.6172 175.319H22.1278V183.83H13.6172V175.319ZM64.681 175.319H73.1917V183.83H64.681V175.319ZM90.2129 175.319H98.7236V183.83H90.2129V175.319ZM98.7236 175.319H107.234V183.83H98.7236V175.319ZM115.745 175.319H124.255V183.83H115.745V175.319ZM124.255 175.319H132.766V183.83H124.255V175.319ZM149.787 175.319H158.298V183.83H149.787V175.319ZM183.83 175.319H192.341V183.83H183.83V175.319ZM209.362 175.319H217.873V183.83H209.362V175.319ZM13.6172 183.83H22.1278V192.341H13.6172V183.83ZM30.6385 183.83H39.1491V192.341H30.6385V183.83ZM39.1491 183.83H47.6597V192.341H39.1491V183.83ZM47.6597 183.83H56.1704V192.341H47.6597V183.83ZM64.681 183.83H73.1917V192.341H64.681V183.83ZM90.2129 183.83H98.7236V192.341H90.2129V183.83ZM98.7236 183.83H107.234V192.341H98.7236V183.83ZM132.766 183.83H141.277V192.341H132.766V183.83ZM141.277 183.83H149.787V192.341H141.277V183.83ZM149.787 183.83H158.298V192.341H149.787V183.83ZM158.298 183.83H166.809V192.341H158.298V183.83ZM166.809 183.83H175.319V192.341H166.809V183.83ZM175.319 183.83H183.83V192.341H175.319V183.83ZM183.83 183.83H192.341V192.341H183.83V183.83ZM209.362 183.83H217.873V192.341H209.362V183.83ZM217.873 183.83H226.383V192.341H217.873V183.83ZM13.6172 192.341H22.1278V200.851H13.6172V192.341ZM30.6385 192.341H39.1491V200.851H30.6385V192.341ZM39.1491 192.341H47.6597V200.851H39.1491V192.341ZM47.6597 192.341H56.1704V200.851H47.6597V192.341ZM64.681 192.341H73.1917V200.851H64.681V192.341ZM90.2129 192.341H98.7236V200.851H90.2129V192.341ZM98.7236 192.341H107.234V200.851H98.7236V192.341ZM107.234 192.341H115.745V200.851H107.234V192.341ZM115.745 192.341H124.255V200.851H115.745V192.341ZM141.277 192.341H149.787V200.851H141.277V192.341ZM158.298 192.341H166.809V200.851H158.298V192.341ZM183.83 192.341H192.341V200.851H183.83V192.341ZM200.851 192.341H209.362V200.851H200.851V192.341ZM209.362 192.341H217.873V200.851H209.362V192.341ZM13.6172 200.851H22.1278V209.362H13.6172V200.851ZM30.6385 200.851H39.1491V209.362H30.6385V200.851ZM39.1491 200.851H47.6597V209.362H39.1491V200.851ZM47.6597 200.851H56.1704V209.362H47.6597V200.851ZM64.681 200.851H73.1917V209.362H64.681V200.851ZM81.7023 200.851H90.2129V209.362H81.7023V200.851ZM124.255 200.851H132.766V209.362H124.255V200.851ZM132.766 200.851H141.277V209.362H132.766V200.851ZM141.277 200.851H149.787V209.362H141.277V200.851ZM149.787 200.851H158.298V209.362H149.787V200.851ZM158.298 200.851H166.809V209.362H158.298V200.851ZM175.319 200.851H183.83V209.362H175.319V200.851ZM183.83 200.851H192.341V209.362H183.83V200.851ZM192.341 200.851H200.851V209.362H192.341V200.851ZM209.362 200.851H217.873V209.362H209.362V200.851ZM217.873 200.851H226.383V209.362H217.873V200.851ZM13.6172 209.362H22.1278V217.873H13.6172V209.362ZM64.681 209.362H73.1917V217.873H64.681V209.362ZM81.7023 209.362H90.2129V217.873H81.7023V209.362ZM90.2129 209.362H98.7236V217.873H90.2129V209.362ZM98.7236 209.362H107.234V217.873H98.7236V209.362ZM124.255 209.362H132.766V217.873H124.255V209.362ZM149.787 209.362H158.298V217.873H149.787V209.362ZM158.298 209.362H166.809V217.873H158.298V209.362ZM166.809 209.362H175.319V217.873H166.809V209.362ZM175.319 209.362H183.83V217.873H175.319V209.362ZM183.83 209.362H192.341V217.873H183.83V209.362ZM13.6172 217.873H22.1278V226.383H13.6172V217.873ZM22.1278 217.873H30.6385V226.383H22.1278V217.873ZM30.6385 217.873H39.1491V226.383H30.6385V217.873ZM39.1491 217.873H47.6597V226.383H39.1491V217.873ZM47.6597 217.873H56.1704V226.383H47.6597V217.873ZM56.1704 217.873H64.681V226.383H56.1704V217.873ZM64.681 217.873H73.1917V226.383H64.681V217.873ZM98.7236 217.873H107.234V226.383H98.7236V217.873ZM115.745 217.873H124.255V226.383H115.745V217.873ZM149.787 217.873H158.298V226.383H149.787V217.873ZM166.809 217.873H175.319V226.383H166.809V217.873ZM192.341 217.873H200.851V226.383H192.341V217.873ZM217.873 217.873H226.383V226.383H217.873V217.873Z" fill="black"/>
</g>
</svg>
