<svg width="398" height="90" viewBox="0 0 398 90" fill="none" xmlns="http://www.w3.org/2000/svg">
<path d="M0 70.7944V5.21546H32.2748C36.4151 5.21546 40.0848 5.93371 43.284 7.3702C46.4833 8.74423 48.9612 10.7116 50.7176 13.2723C52.5368 15.833 53.4464 18.7372 53.4464 21.9849C53.4464 25.8572 52.129 29.1986 49.4944 32.0091C46.8597 34.7572 43.4095 36.506 39.1438 37.2555C43.9114 37.7551 47.7065 39.4414 50.5294 42.3144C53.415 45.1874 54.8578 48.7786 54.8578 53.0881C54.8578 56.5232 53.9169 59.5835 52.035 62.2691C50.2158 64.9548 47.6124 67.047 44.225 68.546C40.9003 70.0449 37.0737 70.7944 32.7453 70.7944H0ZM32.0866 31.2597C34.1568 31.2597 35.8505 30.6663 37.1678 29.4797C38.4852 28.2305 39.1438 26.6379 39.1438 24.7018C39.1438 22.7656 38.5165 21.2042 37.2619 20.0176C36.0073 18.7684 34.4077 18.1439 32.463 18.1439H14.6789V31.2597H32.0866ZM33.0276 57.866C35.2232 57.866 36.9169 57.179 38.1088 55.8049C39.3634 54.4309 39.9907 52.7758 39.9907 50.8397C39.9907 48.966 39.332 47.3109 38.0147 45.8744C36.6973 44.4379 34.8782 43.7197 32.5571 43.7197H14.6789V57.866H33.0276Z" fill="#1D3208"/>
<path d="M76.8667 70.7944H62.3759V0.53125H76.8667V70.7944Z" fill="#1D3208"/>
<path d="M103.478 72.106C97.5815 72.106 92.8767 70.8569 89.3638 68.3586C85.8508 65.8604 84.0944 62.3316 84.0944 57.7723C84.0944 52.3386 86.1331 48.4976 90.2106 46.2491C94.2881 44.0007 99.4947 42.4706 105.831 41.6586C110.222 41.0965 113.295 40.5032 115.052 39.8786C116.871 39.1916 117.781 37.9737 117.781 36.2249C117.781 32.6025 115.209 30.7913 110.065 30.7913C107.179 30.7913 104.827 31.4783 103.008 32.8523C101.251 34.2263 100.216 36.0688 99.9025 38.3797H85.2235C85.5999 34.6948 86.8859 31.4158 89.0815 28.5428C91.3398 25.6074 94.2881 23.359 97.9265 21.7976C101.565 20.1737 105.674 19.3618 110.253 19.3618C117.342 19.3618 122.705 20.9856 126.343 24.2334C130.044 27.4186 131.895 31.7593 131.895 37.2555V58.0534C131.895 59.3649 132.679 60.0207 134.247 60.0207H136.788V70.7944H130.672C128.351 70.7944 126.343 70.4197 124.65 69.6702C122.956 68.8583 121.67 67.7341 120.792 66.2976C120.415 65.7355 120.133 65.1109 119.945 64.4239C116.871 69.5453 111.382 72.106 103.478 72.106ZM106.866 61.426C109.939 61.426 112.511 60.739 114.581 59.3649C116.714 57.9909 117.781 56.086 117.781 53.6502V46.1555C117.091 47.467 115.93 48.4039 114.299 48.966C112.731 49.5281 110.535 50.0277 107.712 50.4649C104.45 50.9646 102.129 51.5891 100.749 52.3386C99.3693 53.0256 98.6792 54.306 98.6792 56.1797C98.6792 57.9284 99.3065 59.24 100.561 60.1144C101.878 60.9888 103.98 61.426 106.866 61.426Z" fill="#1D3208"/>
<path d="M155.559 70.7944H139.375L157.253 45.8744L139.751 21.1418H155.842L165.345 35.1007L174.849 21.1418H190.939L173.438 45.8744L191.316 70.7944H175.131L165.345 55.6176L155.559 70.7944Z" fill="#1D3208"/>
<path d="M217.771 72.4807C212.439 72.4807 207.734 71.3565 203.657 69.1081C199.642 66.7972 196.537 63.6119 194.342 59.5523C192.209 55.4302 191.142 50.7772 191.142 45.5934C191.142 40.347 192.271 35.7565 194.53 31.8218C196.788 27.8246 199.893 24.7642 203.845 22.6407C207.86 20.4548 212.439 19.3618 217.583 19.3618C222.351 19.3618 226.585 20.2986 230.286 22.1723C233.987 23.9835 236.873 26.4818 238.943 29.667C241.013 32.8523 242.111 36.4435 242.236 40.4407H228.122C227.746 37.7551 226.585 35.6004 224.64 33.9765C222.758 32.2902 220.406 31.447 217.583 31.447C214.008 31.447 211.122 32.7274 208.926 35.2881C206.794 37.8488 205.727 41.2839 205.727 45.5934C205.727 50.0902 206.825 53.6814 209.02 56.367C211.216 59.0527 214.133 60.3955 217.771 60.3955C220.532 60.3955 222.821 59.5835 224.64 57.9597C226.522 56.2734 227.683 54.0249 228.122 51.2144H242.236C241.86 55.4614 240.605 59.2088 238.472 62.4565C236.34 65.6418 233.485 68.1088 229.91 69.8576C226.334 71.6063 222.288 72.4807 217.771 72.4807Z" fill="#1D3208"/>
<path d="M273.181 72.4807C267.849 72.4807 263.144 71.3565 259.067 69.1081C255.052 66.7972 251.947 63.6119 249.751 59.5523C247.619 55.4302 246.552 50.7772 246.552 45.5934C246.552 40.347 247.681 35.7565 249.94 31.8218C252.198 27.8246 255.334 24.7642 259.349 22.6407C263.364 20.4548 267.975 19.3618 273.181 19.3618C278.513 19.3618 283.187 20.486 287.202 22.7344C291.216 24.9828 294.321 28.1056 296.517 32.1028C298.713 36.0376 299.81 40.5344 299.81 45.5934C299.81 50.9646 298.681 55.68 296.423 59.7397C294.165 63.7993 291.028 66.9534 287.013 69.2018C282.999 71.3877 278.388 72.4807 273.181 72.4807ZM273.181 60.3955C276.82 60.3955 279.737 59.0527 281.932 56.367C284.128 53.6814 285.225 50.0902 285.225 45.5934C285.225 41.2839 284.128 37.8488 281.932 35.2881C279.737 32.7274 276.82 31.447 273.181 31.447C269.543 31.447 266.626 32.7274 264.43 35.2881C262.235 37.8488 261.137 41.2839 261.137 45.5934C261.137 50.0902 262.235 53.6814 264.43 56.367C266.626 59.0527 269.543 60.3955 273.181 60.3955Z" fill="#1D3208"/>
<path d="M306.802 70.7944V21.1418H318.47L320.258 31.2597C321.889 27.6997 324.147 25.0141 327.033 23.2028C329.918 21.3291 333.4 20.3923 337.477 20.3923H339.642V34.2576H337.477C332.396 34.2576 328.413 35.4755 325.527 37.9112C322.704 40.2846 321.293 43.5948 321.293 47.8418V70.7944H306.802Z" fill="#1D3208"/>
<path d="M345.306 89.5312V21.1418H356.974L358.292 28.5428C359.797 25.7323 362.055 23.5151 365.066 21.8913C368.14 20.2049 371.59 19.3618 375.417 19.3618C379.745 19.3618 383.635 20.486 387.085 22.7344C390.535 24.9204 393.201 28.012 395.083 32.0091C397.028 36.0063 398 40.5656 398 45.687C398 50.8709 397.028 55.5239 395.083 59.646C393.138 63.7056 390.441 66.8597 386.991 69.1081C383.541 71.3565 379.62 72.4807 375.229 72.4807C371.904 72.4807 368.893 71.8562 366.196 70.607C363.561 69.2955 361.428 67.5155 359.797 65.267V89.5312H345.306ZM371.559 60.5828C375.009 60.5828 377.832 59.2088 380.028 56.4607C382.223 53.7127 383.321 50.1527 383.321 45.7807C383.321 41.5337 382.223 38.0674 380.028 35.3818C377.832 32.6337 375.009 31.2597 371.559 31.2597C368.109 31.2597 365.286 32.6025 363.09 35.2881C360.895 37.9113 359.797 41.3463 359.797 45.5934C359.797 50.0277 360.895 53.6502 363.09 56.4607C365.286 59.2088 368.109 60.5828 371.559 60.5828Z" fill="#1D3208"/>
</svg>
