<svg width="33" height="32" viewBox="0 0 33 32" fill="none" xmlns="http://www.w3.org/2000/svg">
<g id="CalendarBlank">
<path id="Vector" d="M26.5 4H23.5V3C23.5 2.73478 23.3946 2.48043 23.2071 2.29289C23.0196 2.10536 22.7652 2 22.5 2C22.2348 2 21.9804 2.10536 21.7929 2.29289C21.6054 2.48043 21.5 2.73478 21.5 3V4H11.5V3C11.5 2.73478 11.3946 2.48043 11.2071 2.29289C11.0196 2.10536 10.7652 2 10.5 2C10.2348 2 9.98043 2.10536 9.79289 2.29289C9.60536 2.48043 9.5 2.73478 9.5 3V4H6.5C5.96957 4 5.46086 4.21071 5.08579 4.58579C4.71071 4.96086 4.5 5.46957 4.5 6V26C4.5 26.5304 4.71071 27.0391 5.08579 27.4142C5.46086 27.7893 5.96957 28 6.5 28H26.5C27.0304 28 27.5391 27.7893 27.9142 27.4142C28.2893 27.0391 28.5 26.5304 28.5 26V6C28.5 5.46957 28.2893 4.96086 27.9142 4.58579C27.5391 4.21071 27.0304 4 26.5 4ZM9.5 6V7C9.5 7.26522 9.60536 7.51957 9.79289 7.70711C9.98043 7.89464 10.2348 8 10.5 8C10.7652 8 11.0196 7.89464 11.2071 7.70711C11.3946 7.51957 11.5 7.26522 11.5 7V6H21.5V7C21.5 7.26522 21.6054 7.51957 21.7929 7.70711C21.9804 7.89464 22.2348 8 22.5 8C22.7652 8 23.0196 7.89464 23.2071 7.70711C23.3946 7.51957 23.5 7.26522 23.5 7V6H26.5V10H6.5V6H9.5ZM26.5 26H6.5V12H26.5V26Z" fill="#163300" fill-opacity="0.4"/>
</g>
</svg>
