<svg width="16" height="16" viewBox="0 0 16 16" fill="none" xmlns="http://www.w3.org/2000/svg">
<g id="CaretLeft">
<path id="Vector" d="M10.8541 2.14597C10.9006 2.19241 10.9375 2.24755 10.9627 2.30825C10.9878 2.36895 11.0008 2.43401 11.0008 2.49972C11.0008 2.56543 10.9878 2.63049 10.9627 2.69119C10.9375 2.75189 10.9006 2.80704 10.8541 2.85347L6.20727 7.49972L10.8541 12.146C10.948 12.2398 11.0007 12.367 11.0007 12.4997C11.0007 12.6324 10.948 12.7597 10.8541 12.8535C10.7603 12.9473 10.6331 13 10.5004 13C10.3677 13 10.2405 12.9473 10.1466 12.8535L5.14664 7.85347C5.10015 7.80704 5.06328 7.75189 5.03811 7.69119C5.01295 7.63049 5 7.56543 5 7.49972C5 7.43401 5.01295 7.36895 5.03811 7.30825C5.06328 7.24755 5.10015 7.19241 5.14664 7.14597L10.1466 2.14597C10.1931 2.09948 10.2482 2.0626 10.3089 2.03744C10.3696 2.01228 10.4347 1.99933 10.5004 1.99933C10.5661 1.99933 10.6312 2.01228 10.6919 2.03744C10.7526 2.0626 10.8077 2.09948 10.8541 2.14597Z" fill="#0E0F0C"/>
</g>
</svg>
