<svg width="56" height="56" viewBox="0 0 56 56" fill="none" xmlns="http://www.w3.org/2000/svg">
<rect width="56" height="56" rx="28" fill="#163300"/>
<path d="M41.6625 26.89L36.33 18.89C36.1473 18.6162 35.8999 18.3917 35.6097 18.2365C35.3194 18.0812 34.9954 18 34.6662 18H15C14.8175 18 14.6386 18.0499 14.4825 18.1443C14.3264 18.2387 14.1991 18.3741 14.1143 18.5357C14.0296 18.6972 13.9907 18.8789 14.0019 19.061C14.013 19.2431 14.0737 19.4187 14.1775 19.5687L20 28L14.1775 36.4312C14.0737 36.5813 14.013 36.7569 14.0019 36.939C13.9907 37.1211 14.0296 37.3028 14.1143 37.4643C14.1991 37.6259 14.3264 37.7613 14.4825 37.8557C14.6386 37.9501 14.8175 38 15 38H34.6662C34.9954 38 35.3194 37.9188 35.6097 37.7635C35.8999 37.6083 36.1473 37.3838 36.33 37.11L41.6625 29.11C41.8818 28.7813 41.9988 28.3951 41.9988 28C41.9988 27.6049 41.8818 27.2187 41.6625 26.89ZM34.6625 36H16.9062L21.6562 29.125L21.6662 29.1125C21.8855 28.7838 22.0025 28.3976 22.0025 28.0025C22.0025 27.6074 21.8855 27.2212 21.6662 26.8925L21.6562 26.88L16.9062 20.005H34.6662L40 28L34.6625 36Z" fill="white"/>
</svg>
