<svg width="56" height="56" viewBox="0 0 56 56" fill="none" xmlns="http://www.w3.org/2000/svg">
<rect width="56" height="56" rx="28" fill="#A0E1E1"/>
<path d="M28.0003 14.7285C25.3756 14.7285 22.8098 15.5068 20.6275 16.9651C18.4451 18.4233 16.7441 20.4959 15.7397 22.9208C14.7352 25.3457 14.4724 28.0141 14.9845 30.5884C15.4966 33.1627 16.7605 35.5273 18.6164 37.3832C20.4724 39.2392 22.837 40.5031 25.4113 41.0152C27.9856 41.5272 30.6539 41.2644 33.0789 40.26C35.5038 39.2556 37.5764 37.5546 39.0346 35.3722C40.4928 33.1899 41.2712 30.6241 41.2712 27.9993C41.2675 24.4808 39.8681 21.1075 37.3801 18.6196C34.8922 16.1316 31.5188 14.7322 28.0003 14.7285ZM28.0003 39.2285C25.7794 39.2285 23.6084 38.5699 21.7617 37.3361C19.9151 36.1022 18.4758 34.3484 17.6259 32.2966C16.776 30.2447 16.5537 27.9869 16.9869 25.8086C17.4202 23.6304 18.4897 21.6296 20.0601 20.0591C21.6305 18.4887 23.6314 17.4192 25.8096 16.9859C27.9879 16.5527 30.2457 16.775 32.2975 17.625C34.3494 18.4749 36.1032 19.9141 37.337 21.7608C38.5709 23.6074 39.2295 25.7784 39.2295 27.9993C39.2261 30.9765 38.042 33.8307 35.9368 35.9358C33.8317 38.041 30.9775 39.2251 28.0003 39.2285ZM36.167 27.9993C36.167 28.2701 36.0594 28.5297 35.868 28.7212C35.6766 28.9126 35.4169 29.0202 35.1462 29.0202H28.0003C27.7296 29.0202 27.4699 28.9126 27.2785 28.7212C27.0871 28.5297 26.9795 28.2701 26.9795 27.9993V20.8535C26.9795 20.5828 27.0871 20.3231 27.2785 20.1317C27.4699 19.9402 27.7296 19.8327 28.0003 19.8327C28.2711 19.8327 28.5307 19.9402 28.7222 20.1317C28.9136 20.3231 29.0212 20.5828 29.0212 20.8535V26.9785H35.1462C35.4169 26.9785 35.6766 27.0861 35.868 27.2775C36.0594 27.469 36.167 27.7286 36.167 27.9993Z" fill="#0E0F0C"/>
</svg>
