<svg width="56" height="56" viewBox="0 0 56 56" fill="none" xmlns="http://www.w3.org/2000/svg">
<rect width="56" height="56" rx="28" fill="#163300" fill-opacity="0.08"/>
<path d="M35.281 34.2198C35.3507 34.2895 35.406 34.3722 35.4437 34.4632C35.4814 34.5543 35.5008 34.6519 35.5008 34.7504C35.5008 34.849 35.4814 34.9465 35.4437 35.0376C35.406 35.1286 35.3507 35.2114 35.281 35.281C35.2114 35.3507 35.1286 35.406 35.0376 35.4437C34.9465 35.4814 34.849 35.5008 34.7504 35.5008C34.6519 35.5008 34.5543 35.4814 34.4632 35.4437C34.3722 35.406 34.2895 35.3507 34.2198 35.281L28.0004 29.0607L21.781 35.281C21.6403 35.4218 21.4494 35.5008 21.2504 35.5008C21.0514 35.5008 20.8605 35.4218 20.7198 35.281C20.5791 35.1403 20.5 34.9494 20.5 34.7504C20.5 34.5514 20.5791 34.3605 20.7198 34.2198L26.9401 28.0004L20.7198 21.781C20.5791 21.6403 20.5 21.4494 20.5 21.2504C20.5 21.0514 20.5791 20.8605 20.7198 20.7198C20.8605 20.5791 21.0514 20.5 21.2504 20.5C21.4494 20.5 21.6403 20.5791 21.781 20.7198L28.0004 26.9401L34.2198 20.7198C34.3605 20.5791 34.5514 20.5 34.7504 20.5C34.9494 20.5 35.1403 20.5791 35.281 20.7198C35.4218 20.8605 35.5008 21.0514 35.5008 21.2504C35.5008 21.4494 35.4218 21.6403 35.281 21.781L29.0607 28.0004L35.281 34.2198Z" fill="#163300"/>
</svg>
