<svg width="24" height="24" viewBox="0 0 24 24" fill="none" xmlns="http://www.w3.org/2000/svg">
<rect width="24" height="24" rx="12" fill="#EDC843"/>
<path d="M12 6.3125C10.8751 6.3125 9.7755 6.64607 8.8402 7.27102C7.90489 7.89597 7.17591 8.78423 6.74544 9.82349C6.31496 10.8627 6.20233 12.0063 6.42179 13.1096C6.64124 14.2128 7.18292 15.2263 7.97833 16.0217C8.77374 16.8171 9.78716 17.3588 10.8904 17.5782C11.9937 17.7977 13.1373 17.685 14.1765 17.2546C15.2158 16.8241 16.104 16.0951 16.729 15.1598C17.3539 14.2245 17.6875 13.1249 17.6875 12C17.6859 10.4921 17.0862 9.04636 16.0199 7.98009C14.9536 6.91382 13.5079 6.31409 12 6.3125ZM12 16.8125C11.0482 16.8125 10.1177 16.5303 9.32632 16.0014C8.53491 15.4726 7.91808 14.721 7.55383 13.8417C7.18959 12.9623 7.09428 11.9947 7.27997 11.0611C7.46566 10.1276 7.92401 9.27009 8.59705 8.59705C9.27009 7.92401 10.1276 7.46566 11.0611 7.27997C11.9947 7.09428 12.9623 7.18958 13.8417 7.55383C14.721 7.91808 15.4726 8.53491 16.0014 9.32632C16.5303 10.1177 16.8125 11.0482 16.8125 12C16.8111 13.2759 16.3036 14.4991 15.4014 15.4014C14.4992 16.3036 13.2759 16.8111 12 16.8125ZM11.5625 12.4375V9.375C11.5625 9.25897 11.6086 9.14769 11.6906 9.06564C11.7727 8.98359 11.884 8.9375 12 8.9375C12.116 8.9375 12.2273 8.98359 12.3094 9.06564C12.3914 9.14769 12.4375 9.25897 12.4375 9.375V12.4375C12.4375 12.5535 12.3914 12.6648 12.3094 12.7469C12.2273 12.8289 12.116 12.875 12 12.875C11.884 12.875 11.7727 12.8289 11.6906 12.7469C11.6086 12.6648 11.5625 12.5535 11.5625 12.4375ZM12.6563 14.4062C12.6563 14.536 12.6178 14.6629 12.5457 14.7708C12.4735 14.8788 12.3711 14.9629 12.2511 15.0125C12.1312 15.0622 11.9993 15.0752 11.872 15.0499C11.7447 15.0246 11.6277 14.9621 11.536 14.8703C11.4442 14.7785 11.3817 14.6616 11.3564 14.5343C11.331 14.407 11.344 14.275 11.3937 14.1551C11.4434 14.0352 11.5275 13.9327 11.6354 13.8606C11.7433 13.7885 11.8702 13.75 12 13.75C12.1741 13.75 12.341 13.8191 12.464 13.9422C12.5871 14.0653 12.6563 14.2322 12.6563 14.4062Z" fill="#0E0F0C"/>
</svg>
