<svg width="16" height="16" viewBox="0 0 16 16" fill="none" xmlns="http://www.w3.org/2000/svg">
<g id="CaretDown">
<path id="Vector" d="M2.64719 4.64586C2.69363 4.59937 2.74877 4.56249 2.80947 4.53733C2.87017 4.51216 2.93523 4.49921 3.00094 4.49921C3.06665 4.49921 3.13171 4.51216 3.19241 4.53733C3.25311 4.56249 3.30826 4.59937 3.35469 4.64586L8.00094 9.29273L12.6472 4.64586C12.741 4.55204 12.8683 4.49933 13.0009 4.49933C13.1336 4.49933 13.2609 4.55204 13.3547 4.64586C13.4485 4.73968 13.5012 4.86692 13.5012 4.99961C13.5012 5.13229 13.4485 5.25954 13.3547 5.35336L8.35469 10.3534C8.30826 10.3998 8.25311 10.4367 8.19241 10.4619C8.13171 10.487 8.06665 10.5 8.00094 10.5C7.93524 10.5 7.87017 10.487 7.80947 10.4619C7.74877 10.4367 7.69363 10.3998 7.64719 10.3534L2.64719 5.35336C2.6007 5.30692 2.56382 5.25178 2.53866 5.19108C2.5135 5.13038 2.50055 5.06531 2.50055 4.99961C2.50055 4.9339 2.5135 4.86884 2.53866 4.80814C2.56382 4.74744 2.6007 4.69229 2.64719 4.64586Z" fill="#0E0F0C"/>
</g>
</svg>
