<svg width="14" height="14" viewBox="0 0 14 14" fill="none" xmlns="http://www.w3.org/2000/svg">
<g id="DownloadSimple">
<path id="Vector" d="M12.25 8.3125V11.375C12.25 11.6071 12.1578 11.8296 11.9937 11.9937C11.8296 12.1578 11.6071 12.25 11.375 12.25H2.625C2.39294 12.25 2.17038 12.1578 2.00628 11.9937C1.84219 11.8296 1.75 11.6071 1.75 11.375V8.3125C1.75 8.19647 1.79609 8.08519 1.87814 8.00314C1.96019 7.92109 2.07147 7.875 2.1875 7.875C2.30353 7.875 2.41481 7.92109 2.49686 8.00314C2.57891 8.08519 2.625 8.19647 2.625 8.3125V11.375H11.375V8.3125C11.375 8.19647 11.4211 8.08519 11.5031 8.00314C11.5852 7.92109 11.6965 7.875 11.8125 7.875C11.9285 7.875 12.0398 7.92109 12.1219 8.00314C12.2039 8.08519 12.25 8.19647 12.25 8.3125ZM6.69047 8.62203C6.7311 8.66271 6.77935 8.69498 6.83246 8.717C6.88558 8.73901 6.94251 8.75034 7 8.75034C7.05749 8.75034 7.11442 8.73901 7.16754 8.717C7.22065 8.69498 7.2689 8.66271 7.30953 8.62203L9.49703 6.43453C9.53768 6.39388 9.56992 6.34563 9.59192 6.29252C9.61392 6.23941 9.62524 6.18249 9.62524 6.125C9.62524 6.06751 9.61392 6.01059 9.59192 5.95748C9.56992 5.90437 9.53768 5.85612 9.49703 5.81547C9.45638 5.77482 9.40813 5.74258 9.35502 5.72058C9.30191 5.69858 9.24499 5.68726 9.1875 5.68726C9.13001 5.68726 9.07309 5.69858 9.01998 5.72058C8.96687 5.74258 8.91862 5.77482 8.87797 5.81547L7.4375 7.25648V2.1875C7.4375 2.07147 7.39141 1.96019 7.30936 1.87814C7.22731 1.79609 7.11603 1.75 7 1.75C6.88397 1.75 6.77269 1.79609 6.69064 1.87814C6.60859 1.96019 6.5625 2.07147 6.5625 2.1875V7.25648L5.12203 5.81547C5.03994 5.73338 4.9286 5.68726 4.8125 5.68726C4.6964 5.68726 4.58506 5.73338 4.50297 5.81547C4.42088 5.89756 4.37476 6.0089 4.37476 6.125C4.37476 6.2411 4.42088 6.35244 4.50297 6.43453L6.69047 8.62203Z" fill="#163300"/>
</g>
</svg>
