<svg width="16" height="16" viewBox="0 0 16 16" fill="none" xmlns="http://www.w3.org/2000/svg">
<g id="eye">
<path id="Vector" fill-rule="evenodd" clip-rule="evenodd" d="M1.71392 8.85742L2.18926 9.17476L2.19192 9.17076C2.21895 9.13042 2.24742 9.09106 2.27726 9.05276C2.34059 8.96876 2.43726 8.84476 2.56659 8.69476C2.91445 8.29202 3.2985 7.92203 3.71392 7.58942C4.72126 6.78342 6.17059 6.00009 7.99992 6.00009C9.82926 6.00009 11.2786 6.78342 12.2859 7.58942C12.7011 7.92206 13.0849 8.29205 13.4326 8.69476C13.5646 8.84785 13.6898 9.00667 13.8079 9.17076L13.8106 9.17476L14.2859 8.85742C14.7613 8.54076 14.7613 8.54009 14.7606 8.54009L14.7599 8.53876L14.7573 8.53476L14.7506 8.52476C14.7143 8.47126 14.6765 8.41879 14.6373 8.36742C14.5593 8.26409 14.4466 8.12075 14.2993 7.94876C13.9052 7.49252 13.47 7.07343 12.9993 6.69675C11.8653 5.78875 10.1713 4.85742 7.99992 4.85742C5.82926 4.85742 4.13526 5.78876 2.99992 6.69742C2.52946 7.07393 2.09453 7.49279 1.70059 7.94876C1.5415 8.13382 1.3909 8.32602 1.24926 8.52476L1.24259 8.53476L1.23992 8.53809V8.53942L1.23926 8.54009L1.71392 8.85742ZM7.99992 10.5714C8.22501 10.5714 8.44789 10.5271 8.65584 10.441C8.8638 10.3548 9.05275 10.2286 9.21191 10.0694C9.37107 9.91024 9.49732 9.72129 9.58345 9.51334C9.66959 9.30539 9.71392 9.08251 9.71392 8.85742C9.71392 8.63234 9.66959 8.40945 9.58345 8.2015C9.49732 7.99355 9.37107 7.8046 9.21191 7.64544C9.05275 7.48628 8.8638 7.36003 8.65584 7.27389C8.44789 7.18776 8.22501 7.14342 7.99992 7.14342C7.54526 7.14342 7.10921 7.32404 6.78771 7.64554C6.46621 7.96704 6.28559 8.40309 6.28559 8.85776C6.28559 9.31243 6.46621 9.74847 6.78771 10.07C7.10921 10.3915 7.54526 10.5721 7.99992 10.5721V10.5714Z" fill="#163300"/>
</g>
</svg>
