<svg width="20" height="20" viewBox="0 0 20 20" fill="none" xmlns="http://www.w3.org/2000/svg">
<g id="filters">
<path id="Vector" fill-rule="evenodd" clip-rule="evenodd" d="M5 5.71306C5.18656 5.71311 5.36573 5.64016 5.49919 5.50981C5.63265 5.37946 5.70981 5.20206 5.71417 5.01556V4.98223C5.71089 4.84173 5.66623 4.70533 5.58579 4.5901C5.50535 4.47487 5.3927 4.38593 5.26195 4.33442C5.1312 4.28292 4.98816 4.27113 4.85074 4.30054C4.71332 4.32995 4.58763 4.39925 4.48941 4.49976C4.39119 4.60027 4.32481 4.72752 4.29858 4.86558C4.27235 5.00364 4.28743 5.14637 4.34194 5.2759C4.39645 5.40543 4.48796 5.516 4.60502 5.59376C4.72207 5.67152 4.85947 5.71302 5 5.71306ZM5 7.14222C5.93333 7.14222 6.72667 6.54556 7.02083 5.71389H17.5V4.28556H7.02083C6.87312 3.86762 6.59947 3.50577 6.23755 3.24982C5.87564 2.99388 5.44327 2.85645 5 2.85645C4.55673 2.85645 4.12436 2.99388 3.76245 3.24982C3.40053 3.50577 3.12688 3.86762 2.97917 4.28556H2.5V5.71389H2.97917C3.12725 6.13146 3.40105 6.4929 3.76292 6.74852C4.12479 7.00414 4.55695 7.14139 5 7.14139V7.14222ZM12.2642 9.28556C12.4121 8.86771 12.6859 8.50598 13.0478 8.25014C13.4098 7.99431 13.8422 7.85693 14.2854 7.85693C14.7287 7.85693 15.161 7.99431 15.523 8.25014C15.885 8.50598 16.1587 8.86771 16.3067 9.28556H17.5V10.7139H16.3067C16.159 11.1318 15.8853 11.4937 15.5234 11.7496C15.1615 12.0056 14.7291 12.143 14.2858 12.143C13.8426 12.143 13.4102 12.0056 13.0483 11.7496C12.6864 11.4937 12.4127 11.1318 12.265 10.7139H2.5V9.28556H12.2642ZM5.48 14.2831C5.62826 13.8658 5.90209 13.5047 6.26385 13.2493C6.62562 12.9939 7.05759 12.8568 7.50042 12.8568C7.94324 12.8568 8.37521 12.9939 8.73698 13.2493C9.09875 13.5047 9.37257 13.8658 9.52083 14.2831H17.5V15.7114H9.52167C9.37413 16.1296 9.10049 16.4918 8.73848 16.7479C8.37646 17.0041 7.9439 17.1417 7.50042 17.1417C7.05693 17.1417 6.62437 17.0041 6.26235 16.7479C5.90034 16.4918 5.6267 16.1296 5.47917 15.7114H2.5V14.2831H5.48ZM15 9.99889C15 10.1883 14.9248 10.37 14.7908 10.5039C14.6569 10.6378 14.4752 10.7131 14.2858 10.7131C14.0964 10.7131 13.9148 10.6378 13.7808 10.5039C13.6469 10.37 13.5717 10.1883 13.5717 9.99889C13.5718 9.80948 13.6471 9.62788 13.7811 9.49402C13.9151 9.36017 14.0968 9.28503 14.2862 9.28514C14.4757 9.28525 14.6573 9.3606 14.7911 9.49461C14.925 9.62862 15.0001 9.81032 15 9.99972V9.99889ZM8.21417 14.9989C8.21417 15.1883 8.13892 15.37 8.00499 15.5039C7.87106 15.6378 7.68941 15.7131 7.5 15.7131C7.31059 15.7131 7.12894 15.6378 6.99501 15.5039C6.86108 15.37 6.78583 15.1883 6.78583 14.9989C6.78583 14.8095 6.86108 14.6278 6.99501 14.4939C7.12894 14.36 7.31059 14.2847 7.5 14.2847C7.68941 14.2847 7.87106 14.36 8.00499 14.4939C8.13892 14.6278 8.21417 14.8095 8.21417 14.9989Z" fill="#163300"/>
</g>
</svg>
