<svg width="24" height="24" viewBox="0 0 24 24" fill="none" xmlns="http://www.w3.org/2000/svg">
<rect width="24" height="24" rx="12" fill="#A0E1E1"/>
<path d="M16.375 9.375H10.25V8.0625C10.25 7.59837 10.4344 7.15325 10.7626 6.82506C11.0908 6.49687 11.5359 6.3125 12 6.3125C12.8405 6.3125 13.5969 6.91406 13.7587 7.71195C13.7828 7.8247 13.8503 7.92341 13.9468 7.98662C14.0432 8.04983 14.1606 8.07243 14.2736 8.04952C14.3866 8.0266 14.4859 7.96002 14.5501 7.86425C14.6143 7.76848 14.638 7.65125 14.6163 7.53805C14.3691 6.3207 13.2688 5.4375 12 5.4375C11.304 5.43822 10.6368 5.71502 10.1446 6.20714C9.65252 6.69927 9.37572 7.36653 9.375 8.0625V9.375H7.625C7.39294 9.375 7.17038 9.46719 7.00628 9.63128C6.84219 9.79538 6.75 10.0179 6.75 10.25V16.375C6.75 16.6071 6.84219 16.8296 7.00628 16.9937C7.17038 17.1578 7.39294 17.25 7.625 17.25H16.375C16.6071 17.25 16.8296 17.1578 16.9937 16.9937C17.1578 16.8296 17.25 16.6071 17.25 16.375V10.25C17.25 10.0179 17.1578 9.79538 16.9937 9.63128C16.8296 9.46719 16.6071 9.375 16.375 9.375ZM16.375 16.375H7.625V10.25H16.375V16.375Z" fill="#0E0F0C"/>
</svg>
