<svg width="29" height="32" viewBox="0 0 29 32" fill="none" xmlns="http://www.w3.org/2000/svg">
<g id="Mask group">
<mask id="mask0_880_627" style="mask-type:alpha" maskUnits="userSpaceOnUse" x="0" y="0" width="29" height="32">
<path id="Vector 3" d="M12.7675 0.928603C10.4514 2.58662 7.72758 4.21155 2.15321 4.53719C0.98013 4.60571 0.00869265 5.52927 0.0012564 6.70432C-0.0774421 19.14 3.53227 27.0561 13.2954 30.9435C13.7748 31.1344 14.3143 31.1344 14.7937 30.9435C24.5568 27.0561 28.1665 19.14 28.0878 6.70432C28.0804 5.52927 27.1089 4.60571 25.9358 4.53719C20.3615 4.21155 17.6376 2.58662 15.3216 0.928603C14.5551 0.379904 13.534 0.379904 12.7675 0.928603Z" fill="#0E0F0C"/>
</mask>
<g mask="url(#mask0_880_627)">
<g id="Group 2">
<path id="Vector" d="M-8.72314 13.2843V-5.53475C-8.28848 -6.61314 -7.46633 -7.15234 -6.25671 -7.15234C-0.288638 -7.15234 5.56933 -7.15234 11.3172 -7.15234C11.875 -7.15234 12.4101 -6.93097 12.8049 -6.53681C13.1998 -6.14265 13.4222 -5.6079 13.4233 -5.0499C13.4376 0.771159 13.4376 6.68375 13.4233 12.6879C13.419 14.8289 11.8877 15.0049 10.069 15.0049C4.4841 15.002 -1.10078 15.0006 -6.68565 15.0006C-7.64649 15.0006 -8.32565 14.4285 -8.72314 13.2843Z" fill="#AFE57F"/>
<path id="Vector_2" d="M34.4533 -7.15234H16.6658C15.4591 -7.15234 14.481 -6.17417 14.481 -4.96753V12.82C14.481 14.0267 15.4591 15.0049 16.6658 15.0049H34.4533C35.66 15.0049 36.6382 14.0267 36.6382 12.82V-4.96753C36.6382 -6.17417 35.66 -7.15234 34.4533 -7.15234Z" fill="#AFE57F"/>
<path id="Vector_3" d="M-8.72314 36.4168V17.7247C-8.30223 16.6088 -7.64527 16.0508 -6.75225 16.0508C-0.995983 16.0622 4.76028 16.0751 10.5166 16.0894C12.496 16.0937 13.2596 16.6474 13.2596 18.6775C13.2596 24.6521 13.2525 30.4994 13.2383 36.2193C13.2371 36.7456 13.0285 37.25 12.6582 37.6217C12.288 37.9935 11.7862 38.2023 11.2631 38.2023C5.36748 38.208 -0.620574 38.2094 -6.70106 38.2066C-7.67939 38.2066 -8.35342 37.61 -8.72314 36.4168Z" fill="#AFE57F"/>
<path id="Vector_4" d="M34.2895 16.1188L16.4766 16.0877C15.2995 16.0856 14.3435 17.0382 14.3415 18.2154L14.3104 36.0368C14.3083 37.2139 15.2609 38.1698 16.4381 38.1719L34.2509 38.203C35.428 38.205 36.384 37.2524 36.386 36.0753L36.4171 18.2539C36.4192 17.0768 35.4666 16.1208 34.2895 16.1188Z" fill="#AFE57F"/>
</g>
</g>
</g>
</svg>
