<svg width="40" height="40" viewBox="0 0 40 40" fill="none" xmlns="http://www.w3.org/2000/svg">
<path d="M35 25C35 25.3315 34.8683 25.6495 34.6339 25.8839C34.3995 26.1183 34.0815 26.25 33.75 26.25H6.25C5.91848 26.25 5.60054 26.1183 5.36612 25.8839C5.1317 25.6495 5 25.3315 5 25C5 24.6685 5.1317 24.3505 5.36612 24.1161C5.60054 23.8817 5.91848 23.75 6.25 23.75H33.75C34.0815 23.75 34.3995 23.8817 34.6339 24.1161C34.8683 24.3505 35 24.6685 35 25ZM6.25 16.25H33.75C34.0815 16.25 34.3995 16.1183 34.6339 15.8839C34.8683 15.6495 35 15.3315 35 15C35 14.6685 34.8683 14.3505 34.6339 14.1161C34.3995 13.8817 34.0815 13.75 33.75 13.75H6.25C5.91848 13.75 5.60054 13.8817 5.36612 14.1161C5.1317 14.3505 5 14.6685 5 15C5 15.3315 5.1317 15.6495 5.36612 15.8839C5.60054 16.1183 5.91848 16.25 6.25 16.25Z" fill="#0E0F0C"/>
</svg>
