<svg width="24" height="24" viewBox="0 0 24 24" fill="none" xmlns="http://www.w3.org/2000/svg">
<path d="M21.5462 11.2496C21.6447 11.2496 21.7423 11.269 21.8334 11.3067C21.9244 11.3444 22.0071 11.3997 22.0768 11.4694C22.1465 11.5391 22.2018 11.6218 22.2395 11.7128C22.2772 11.8039 22.2966 11.9015 22.2966 12C22.2966 12.0985 22.2772 12.1961 22.2395 12.2872C22.2018 12.3782 22.1465 12.4609 22.0768 12.5306C22.0071 12.6003 21.9244 12.6556 21.8334 12.6933C21.7423 12.731 21.6447 12.7504 21.5462 12.7504L12.75 12.7498L12.7507 21.5459C12.7507 21.745 12.6716 21.9358 12.5309 22.0766C12.3902 22.2173 12.1993 22.2964 12.0003 22.2964C11.8012 22.2964 11.6104 22.2173 11.4696 22.0766C11.3289 21.9358 11.2498 21.745 11.2498 21.5459L11.2505 12.7498L2.45432 12.7504C2.25529 12.7504 2.06442 12.6714 1.92369 12.5306C1.78296 12.3899 1.7039 12.199 1.7039 12C1.7039 11.801 1.78296 11.6101 1.92369 11.4694C2.06442 11.3286 2.25529 11.2496 2.45432 11.2496L11.2505 11.2502L11.2498 2.45406C11.2498 2.25504 11.3289 2.06416 11.4696 1.92343C11.6104 1.7827 11.8012 1.70364 12.0003 1.70364C12.1993 1.70364 12.3902 1.7827 12.5309 1.92343C12.6716 2.06416 12.7507 2.25503 12.7507 2.45406L12.75 11.2502L21.5462 11.2496Z" fill="#0E0F0C"/>
</svg>
