<svg width="72" height="32" viewBox="0 0 72 32" fill="none" xmlns="http://www.w3.org/2000/svg">
<rect width="72" height="32" rx="16" fill="#D2D8CF"/>
<path d="M21.78 14.2536H19.9206C19.8676 13.9486 19.7698 13.6785 19.6273 13.4432C19.4848 13.2045 19.3075 13.0024 19.0953 12.8366C18.8832 12.6709 18.6413 12.5466 18.3695 12.4638C18.101 12.3776 17.811 12.3345 17.4995 12.3345C16.946 12.3345 16.4554 12.4737 16.0279 12.7521C15.6003 13.0272 15.2656 13.4316 15.0236 13.9652C14.7817 14.4955 14.6607 15.1435 14.6607 15.9091C14.6607 16.688 14.7817 17.3442 15.0236 17.8778C15.2689 18.4081 15.6036 18.8092 16.0279 19.081C16.4554 19.3494 16.9443 19.4837 17.4945 19.4837C17.7994 19.4837 18.0845 19.4439 18.3496 19.3643C18.6181 19.2815 18.8584 19.1605 19.0705 19.0014C19.2859 18.8423 19.4666 18.6468 19.6124 18.4148C19.7615 18.1828 19.8643 17.9176 19.9206 17.6193L21.78 17.6293C21.7104 18.1132 21.5596 18.5672 21.3276 18.9915C21.0989 19.4157 20.7989 19.7902 20.4277 20.1151C20.0565 20.4366 19.6223 20.6884 19.1252 20.8707C18.628 21.0497 18.0762 21.1392 17.4696 21.1392C16.5748 21.1392 15.776 20.9321 15.0733 20.5178C14.3707 20.1035 13.8172 19.5052 13.4128 18.723C13.0085 17.9408 12.8063 17.0028 12.8063 15.9091C12.8063 14.812 13.0101 13.8741 13.4178 13.0952C13.8255 12.313 14.3806 11.7147 15.0833 11.3004C15.7859 10.8861 16.5814 10.679 17.4696 10.679C18.0364 10.679 18.5634 10.7585 19.0506 10.9176C19.5378 11.0767 19.972 11.3104 20.3532 11.6186C20.7343 11.9235 21.0475 12.2981 21.2928 12.7422C21.5414 13.183 21.7038 13.6868 21.78 14.2536ZM25.762 21.1541C25.2781 21.1541 24.8423 21.0679 24.4545 20.8956C24.07 20.7199 23.7651 20.4614 23.5397 20.12C23.3176 19.7786 23.2066 19.3577 23.2066 18.8572C23.2066 18.4264 23.2862 18.0701 23.4452 17.7884C23.6043 17.5066 23.8214 17.2812 24.0965 17.1122C24.3716 16.9432 24.6815 16.8156 25.0262 16.7294C25.3742 16.6399 25.7338 16.5753 26.105 16.5355C26.5525 16.4891 26.9154 16.4477 27.1938 16.4112C27.4722 16.3714 27.6744 16.3118 27.8004 16.2322C27.9296 16.1494 27.9942 16.0218 27.9942 15.8494V15.8196C27.9942 15.4451 27.8832 15.1551 27.6612 14.9496C27.4391 14.7441 27.1192 14.6413 26.7016 14.6413C26.2608 14.6413 25.9112 14.7375 25.6526 14.9297C25.3974 15.1219 25.2251 15.349 25.1356 15.6108L23.4552 15.3722C23.5878 14.9081 23.8065 14.5204 24.1114 14.2088C24.4164 13.8939 24.7892 13.6586 25.23 13.5028C25.6709 13.3438 26.1581 13.2642 26.6917 13.2642C27.0596 13.2642 27.4258 13.3073 27.7904 13.3935C28.155 13.4796 28.4881 13.6222 28.7897 13.821C29.0913 14.0166 29.3333 14.2834 29.5156 14.6214C29.7012 14.9595 29.794 15.3821 29.794 15.8892V21H28.0638V19.951H28.0042C27.8948 20.1631 27.7407 20.362 27.5418 20.5476C27.3463 20.7299 27.0994 20.8774 26.8011 20.9901C26.5061 21.0994 26.1597 21.1541 25.762 21.1541ZM26.2293 19.8317C26.5906 19.8317 26.9038 19.7604 27.169 19.6179C27.4341 19.4721 27.638 19.2798 27.7805 19.0412C27.9263 18.8026 27.9992 18.5424 27.9992 18.2607V17.3608C27.9429 17.4072 27.8468 17.4503 27.7109 17.4901C27.5783 17.5298 27.4291 17.5646 27.2634 17.5945C27.0977 17.6243 26.9336 17.6508 26.7712 17.674C26.6088 17.6972 26.468 17.7171 26.3487 17.7337C26.0802 17.7701 25.8399 17.8298 25.6278 17.9126C25.4156 17.9955 25.2483 18.1115 25.1256 18.2607C25.003 18.4065 24.9417 18.5954 24.9417 18.8274C24.9417 19.1589 25.0627 19.4091 25.3046 19.5781C25.5466 19.7472 25.8548 19.8317 26.2293 19.8317ZM33.5783 16.5256V21H31.7786V13.3636H33.4988V14.6612H33.5883C33.7639 14.2337 34.044 13.8939 34.4285 13.642C34.8163 13.3902 35.2952 13.2642 35.8653 13.2642C36.3923 13.2642 36.8513 13.3769 37.2424 13.6023C37.6368 13.8277 37.9417 14.1541 38.1572 14.5817C38.3759 15.0092 38.4836 15.5279 38.4803 16.1378V21H36.6806V16.4162C36.6806 15.9058 36.548 15.5064 36.2829 15.218C36.021 14.9297 35.6581 14.7855 35.1941 14.7855C34.8792 14.7855 34.5992 14.8551 34.3539 14.9943C34.112 15.1302 33.9214 15.3274 33.7822 15.5859C33.6463 15.8445 33.5783 16.1577 33.5783 16.5256ZM43.8158 21.1491C43.0535 21.1491 42.3989 20.9818 41.8521 20.647C41.3085 20.3123 40.8892 19.8499 40.5942 19.2599C40.3026 18.6667 40.1567 17.9839 40.1567 17.2116C40.1567 16.4361 40.3059 15.7517 40.6042 15.1584C40.9025 14.5618 41.3234 14.0978 41.867 13.7663C42.4138 13.4316 43.0602 13.2642 43.8059 13.2642C44.4257 13.2642 44.9742 13.3786 45.4515 13.6072C45.9321 13.8326 46.3149 14.1525 46.5999 14.5668C46.885 14.9777 47.0474 15.4583 47.0871 16.0085H45.367C45.2974 15.6406 45.1317 15.334 44.8698 15.0888C44.6113 14.8402 44.2649 14.7159 43.8308 14.7159C43.4629 14.7159 43.1397 14.8153 42.8613 15.0142C42.5829 15.2098 42.3658 15.4915 42.21 15.8594C42.0576 16.2273 41.9813 16.6681 41.9813 17.1818C41.9813 17.7022 42.0576 18.1496 42.21 18.5241C42.3625 18.8954 42.5763 19.1821 42.8513 19.3842C43.1298 19.5831 43.4562 19.6825 43.8308 19.6825C44.0959 19.6825 44.3329 19.6328 44.5417 19.5334C44.7538 19.4306 44.9311 19.2831 45.0737 19.0909C45.2162 18.8987 45.3139 18.665 45.367 18.3899H47.0871C47.0441 18.9302 46.885 19.4091 46.6099 19.8267C46.3348 20.241 45.9603 20.5658 45.4863 20.8011C45.0123 21.0331 44.4555 21.1491 43.8158 21.1491ZM52.1206 21.1491C51.355 21.1491 50.6938 20.9901 50.137 20.6719C49.5835 20.3504 49.1576 19.8963 48.8593 19.3097C48.561 18.7197 48.4118 18.0253 48.4118 17.2266C48.4118 16.4411 48.561 15.7517 48.8593 15.1584C49.1609 14.5618 49.5818 14.0978 50.1221 13.7663C50.6623 13.4316 51.297 13.2642 52.0262 13.2642C52.4968 13.2642 52.9409 13.3404 53.3586 13.4929C53.7795 13.642 54.1507 13.8741 54.4722 14.1889C54.797 14.5038 55.0522 14.9048 55.2378 15.392C55.4234 15.8759 55.5162 16.4527 55.5162 17.1222V17.674H49.257V16.4609H53.7911C53.7878 16.1162 53.7132 15.8097 53.5674 15.5412C53.4215 15.2694 53.2177 15.0556 52.9559 14.8999C52.6973 14.7441 52.3957 14.6662 52.051 14.6662C51.6831 14.6662 51.36 14.7557 51.0816 14.9347C50.8032 15.1103 50.5861 15.3423 50.4303 15.6307C50.2778 15.9157 50.1999 16.2289 50.1966 16.5703V17.6293C50.1966 18.0734 50.2778 18.4545 50.4402 18.7727C50.6026 19.0876 50.8297 19.3295 51.1213 19.4986C51.413 19.6643 51.7544 19.7472 52.1455 19.7472C52.4073 19.7472 52.6443 19.7107 52.8564 19.6378C53.0685 19.5616 53.2525 19.4505 53.4083 19.3047C53.5641 19.1589 53.6817 18.9782 53.7613 18.7628L55.4417 18.9517C55.3356 19.3958 55.1334 19.7836 54.8351 20.1151C54.5401 20.4432 54.1623 20.6984 53.7016 20.8807C53.2409 21.0597 52.7139 21.1491 52.1206 21.1491ZM59.0135 10.8182V21H57.2138V10.8182H59.0135Z" fill="#163300"/>
</svg>
