<svg version="1.1" id="Layer_1" xmlns="http://www.w3.org/2000/svg" xmlns:xlink="http://www.w3.org/1999/xlink" x="0px" y="0px"
	 width="100%" viewBox="0 0 168 168" enable-background="new 0 0 168 168" xml:space="preserve">
<path fill="#ECEFEA" opacity="1.000000" stroke="none" 
	d="
M168.755463,27.750847 
	C169.000000,65.687561 169.000000,103.375122 169.000000,141.531342 
	C161.845169,152.515457 152.983047,161.324219 142.249146,168.755463 
	C104.312439,169.000000 66.624878,169.000000 28.468658,169.000000 
	C17.484547,161.845169 8.675772,152.983047 1.244534,142.249146 
	C1.000000,104.312439 1.000000,66.624878 1.000000,28.468658 
	C8.375642,17.705250 16.872389,8.531216 27.750866,1.244519 
	C65.687561,1.000000 103.375122,1.000000 141.531342,1.000000 
	C152.515457,8.154833 161.324234,17.016945 168.755463,27.750847 
z"/>
<path fill="#FFFFFF" opacity="1.000000" stroke="none" 
	d="
M27.531338,1.000000 
	C27.969278,3.951051 25.130842,4.458575 23.503933,5.889906 
	C16.669289,11.902922 9.674133,17.715269 4.800473,25.593828 
	C4.127395,26.681900 3.103915,27.652212 1.347098,27.966675 
	C1.000000,19.900089 1.127020,11.796970 0.922486,3.702228 
	C0.861240,1.278352 1.485658,0.885929 3.756179,0.935288 
	C11.521811,1.104107 19.293375,1.000000 27.531338,1.000000 
z"/>
<path fill="#FFFFFF" opacity="1.000000" stroke="none" 
	d="
M1.000000,142.468658 
	C4.503436,142.445450 5.464491,145.832016 7.215013,147.959030 
	C13.038713,155.035278 19.565422,161.251831 26.928570,166.653961 
	C27.408405,167.005997 27.602398,167.747650 27.964678,168.654022 
	C19.900089,169.000000 11.796968,168.872986 3.702225,169.077515 
	C1.278342,169.138763 0.885929,168.514328 0.935288,166.243820 
	C1.104107,158.478180 1.000000,150.706619 1.000000,142.468658 
z"/>
<path fill="#FFFFFF" opacity="1.000000" stroke="none" 
	d="
M142.468658,169.000000 
	C142.446106,165.497238 145.832123,164.535385 147.958969,162.784912 
	C155.035110,156.961029 161.251831,150.434464 166.654022,143.071304 
	C167.006073,142.591476 167.747620,142.397415 168.653992,142.035217 
	C169.000000,150.099915 168.872971,158.203018 169.077515,166.297775 
	C169.138763,168.721649 168.514343,169.114075 166.243820,169.064713 
	C158.478180,168.895889 150.706619,169.000000 142.468658,169.000000 
z"/>
<path fill="#FFFFFF" opacity="1.000000" stroke="none" 
	d="
M169.000000,27.531338 
	C165.496536,27.554743 164.534576,24.168301 162.784760,22.041214 
	C156.962280,14.963424 150.433472,8.749116 143.071213,3.345963 
	C142.591400,2.993831 142.397308,2.252365 142.035156,1.345999 
	C150.099915,1.000000 158.203018,1.127020 166.297775,0.922485 
	C168.721634,0.861240 169.114059,1.485656 169.064713,3.756179 
	C168.895889,11.521811 169.000000,19.293375 169.000000,27.531338 
z"/>
<path fill="#DDB93C" opacity="1.000000" stroke="none" 
	d="
M138.617584,109.665268 
	C139.004501,115.133926 139.766968,120.287582 138.040527,125.680862 
	C137.152145,126.559547 136.372177,126.513550 135.265717,126.541550 
	C129.987930,123.171906 129.635773,117.023453 126.110184,112.399673 
	C125.532700,110.712044 124.508606,109.707649 123.872917,107.999146 
	C123.489746,89.798836 123.201149,72.029312 124.085999,53.837402 
	C126.634323,51.073654 128.595978,52.399178 130.126602,54.325687 
	C132.932236,57.856983 134.965134,61.746216 135.685562,66.353661 
	C137.052704,75.096939 136.550339,83.880890 136.736053,92.654106 
	C136.854340,98.242027 136.923935,103.852150 138.617584,109.665268 
z"/>
<path fill="#BF9026" opacity="1.000000" stroke="none" 
	d="
M88.995682,148.897614 
	C86.527374,151.240311 83.741753,151.040588 80.791473,149.880066 
	C67.271706,144.561890 53.953011,138.812424 41.131237,131.038391 
	C41.204147,129.879227 41.469528,129.403976 41.320686,128.906799 
	C35.448120,109.291115 38.560287,89.388657 39.485233,69.565681 
	C39.596508,67.180946 40.346355,64.770180 44.126343,65.823120 
	C45.738461,67.883469 45.443275,69.935402 45.446026,71.904091 
	C45.465305,85.710648 45.504341,99.517303 45.422073,113.747787 
	C44.478443,120.710777 46.774639,125.927696 52.144138,129.639969 
	C60.335148,135.302917 69.383247,138.784332 79.380272,139.473923 
	C82.744637,139.706009 85.959251,138.969177 89.137207,136.869888 
	C89.875443,136.438766 90.331825,136.279388 91.164474,136.160995 
	C93.429550,136.621185 95.055267,136.117508 96.712296,134.519043 
	C97.428024,134.107101 97.869484,133.932541 98.680023,133.715332 
	C102.681839,132.929321 105.442223,130.478790 108.586586,128.782211 
	C110.128036,127.950493 111.628654,126.541733 113.570465,128.682922 
	C113.811073,129.517639 113.816315,130.009872 113.591995,130.842285 
	C103.926414,139.513565 92.519653,143.570679 79.692451,145.449341 
	C82.662941,148.054047 86.261459,146.776657 88.995682,148.897614 
z"/>
<path fill="#DEBD41" opacity="1.000000" stroke="none" 
	d="
M138.992371,109.542770 
	C136.330994,110.152657 136.204391,108.527863 135.943726,106.484909 
	C134.656723,96.397530 135.253906,86.267036 134.929718,76.159836 
	C134.702530,69.076981 134.345718,61.903397 129.530121,55.929176 
	C128.483978,54.631332 127.934769,52.976532 125.539139,52.998421 
	C124.726379,52.769363 124.367523,52.444916 123.922409,51.696629 
	C123.493271,50.112282 122.689827,49.096134 122.166565,47.529312 
	C121.896011,44.717175 122.957283,42.619381 123.982811,40.576485 
	C127.083603,34.399555 132.373474,33.266129 138.402847,37.767494 
	C139.312912,40.752861 138.880981,43.447701 138.955276,46.499458 
	C138.470474,48.475372 138.006607,50.072418 138.920868,52.075417 
	C139.045975,59.025051 138.976089,65.584091 138.999878,72.573578 
	C139.026031,85.029472 139.052063,97.054733 138.992371,109.542770 
z"/>
<path fill="#CAA230" opacity="1.000000" stroke="none" 
	d="
M31.112949,125.176453 
	C29.516403,123.458687 30.034527,121.534470 30.028442,119.772430 
	C29.973373,103.823189 29.990055,87.873688 30.051659,71.459312 
	C31.707056,69.743523 32.696114,67.971939 34.027615,66.503227 
	C35.224567,65.182922 36.472828,63.489662 38.755634,65.713463 
	C39.745338,72.460587 37.632607,78.616562 37.745846,84.954529 
	C37.941971,95.931213 37.833160,106.914474 37.777901,117.894753 
	C37.764587,120.539886 37.941818,123.256973 35.887909,125.905075 
	C34.653915,126.775810 33.724056,126.783012 32.325096,126.278091 
	C31.883495,126.086952 31.939219,126.034790 31.955156,126.069466 
	C31.792072,125.813042 31.569469,125.559593 31.112949,125.176453 
z"/>
<path fill="#E3C54C" opacity="1.000000" stroke="none" 
	d="
M137.761230,48.342712 
	C137.995697,44.969376 137.995651,41.939213 137.993790,38.455017 
	C136.004303,35.235950 133.202240,34.194454 130.098251,35.240807 
	C123.967361,37.307533 117.560295,36.406620 111.325584,37.370396 
	C105.982407,38.196365 101.759026,35.348129 98.030952,31.723240 
	C93.357147,27.178776 88.475143,22.902927 81.459854,20.434355 
	C83.026535,17.290640 85.477592,17.633741 87.965210,19.223862 
	C90.757591,21.008785 93.539482,22.819366 96.231537,24.750395 
	C107.617393,32.917538 120.171753,34.899693 133.588165,31.588648 
	C137.841888,30.538874 139.155197,31.734842 139.347763,36.017693 
	C139.891800,48.118198 139.722687,60.205765 139.201843,72.652130 
	C136.799698,67.922874 138.502441,62.592682 138.026169,57.398773 
	C137.860565,55.592682 137.998581,53.758755 137.996826,51.468994 
	C137.421539,50.313591 137.257462,49.543640 137.761230,48.342712 
z"/>
<path fill="#C69B2B" opacity="1.000000" stroke="none" 
	d="
M89.141388,149.159882 
	C85.700844,149.009781 82.177490,149.065063 78.958717,147.452759 
	C78.025940,146.985504 76.254471,147.188980 76.569885,145.522919 
	C76.818169,144.211472 78.228699,144.173981 79.409500,143.983444 
	C86.438919,142.849304 93.334160,141.364700 99.863998,138.262741 
	C104.226822,136.190231 108.012970,133.226746 112.647079,131.040955 
	C114.410622,133.064682 112.767769,134.325409 111.690147,135.659119 
	C110.463142,137.177704 109.015152,138.514481 107.709747,140.425781 
	C107.241791,141.096451 106.911667,141.412537 106.320038,141.938385 
	C106.139130,142.234390 106.092720,142.153519 106.138748,142.146103 
	C105.854050,142.173355 105.587143,142.322357 105.195045,142.724701 
	C105.006050,142.863724 104.647652,143.064880 104.442757,143.080597 
	C103.667152,143.384842 103.039177,143.481262 102.201233,143.854721 
	C101.973999,144.073822 101.778877,144.239151 101.654190,144.210785 
	C100.826317,144.256577 100.156700,144.480469 99.283432,144.939178 
	C99.093422,145.234848 99.067772,145.136703 99.114044,145.157471 
	C99.160316,145.178238 98.693176,145.280670 98.470261,145.366669 
	C97.916847,145.454453 97.619354,145.554428 97.194229,145.928955 
	C97.033592,146.105316 97.019867,146.029922 97.055954,146.042816 
	C96.593475,146.392639 96.011368,146.484467 95.216347,146.802246 
	C94.989342,146.986877 94.767334,147.171600 94.628265,147.132721 
	C93.822662,147.262329 93.170296,147.485611 92.254257,147.857635 
	C92.016235,148.105652 92.022263,148.031067 92.056717,148.045654 
	C91.298698,148.662140 90.313049,148.381958 89.241936,148.916840 
	C89.038681,149.194000 89.108215,149.122787 89.141388,149.159882 
z"/>
<path fill="#D0A831" opacity="1.000000" stroke="none" 
	d="
M107.380730,141.187500 
	C106.624832,136.390869 111.885529,135.378937 112.957413,131.343063 
	C113.001434,130.557755 113.006096,130.117325 113.008179,129.346558 
	C114.042366,127.109749 115.149940,125.241249 116.248344,122.985077 
	C117.773056,121.143311 118.929352,119.439491 120.447052,117.563393 
	C121.379959,116.921432 122.077507,116.718269 123.154320,117.138855 
	C125.123863,120.384735 124.464493,123.391632 123.387848,126.366577 
	C122.611229,128.512482 121.547989,130.577042 121.816277,133.357483 
	C121.693352,133.989777 121.600777,134.232941 121.302658,134.807877 
	C121.097099,135.139648 121.014442,135.091248 121.062241,135.088226 
	C120.587639,135.398193 119.983360,135.478745 119.228668,135.908936 
	C119.035759,136.137909 119.039177,136.057724 119.076401,136.072723 
	C118.589043,136.396271 117.985695,136.479065 117.227982,136.905182 
	C117.033173,137.132629 117.034637,137.052963 117.071594,137.067841 
	C116.588379,137.397537 115.986206,137.479126 115.227219,137.899536 
	C115.030205,138.124054 115.029434,138.044922 115.065552,138.061066 
	C114.587410,138.399002 113.987717,138.479355 113.225601,138.888580 
	C113.024223,139.107391 113.023117,139.030670 113.057281,139.048126 
	C112.587639,139.399765 111.992928,139.479919 111.224869,139.867554 
	C111.016144,140.076187 111.011520,140.007675 111.040329,140.026367 
	C110.573601,140.418549 109.965332,140.481888 109.169838,140.848969 
	C108.943405,141.044846 108.747665,141.197327 108.628784,141.161835 
	C108.252243,141.212799 107.994598,141.299225 107.380730,141.187500 
z"/>
<path fill="#D4AF36" opacity="1.000000" stroke="none" 
	d="
M38.312042,64.822601 
	C34.393345,65.542824 34.865891,70.947250 30.476738,70.987854 
	C30.070457,70.541214 30.023315,70.088074 30.046043,69.298416 
	C30.974514,64.772964 30.283623,60.535404 30.533379,55.912941 
	C34.594692,53.395939 38.921715,52.490101 43.787853,52.632069 
	C44.912811,53.705421 45.099289,54.724396 44.847054,56.205563 
	C41.978195,58.720459 40.861012,62.106739 38.312042,64.822601 
z"/>
<path fill="#E3C54C" opacity="1.000000" stroke="none" 
	d="
M31.041115,33.346474 
	C31.500008,29.928289 33.756229,31.112465 35.258553,31.497313 
	C48.031410,34.769318 59.998909,33.115028 71.762505,26.249277 
	C72.434776,29.699177 69.687325,30.403578 67.660149,31.599470 
	C57.836441,37.394779 47.279633,37.615147 36.031860,35.463295 
	C34.783466,35.404846 33.947395,35.397541 32.751167,35.003250 
	C31.865080,34.588093 31.463139,34.217545 31.041115,33.346474 
z"/>
<path fill="#CAA230" opacity="1.000000" stroke="none" 
	d="
M30.589127,33.217163 
	C31.190746,33.154175 31.456316,33.358509 31.845385,33.783665 
	C33.103447,40.778748 33.549957,47.540634 31.311735,54.623940 
	C30.889414,59.435253 30.760099,63.882153 30.373352,68.645477 
	C29.899843,57.135078 29.613867,45.307991 30.589127,33.217163 
z"/>
<path fill="#C49B3C" opacity="1.000000" stroke="none" 
	d="
M121.452591,135.091858 
	C121.076736,134.945602 121.056381,134.751572 121.021149,134.265259 
	C123.442070,129.457428 127.958633,128.392441 132.716675,127.190392 
	C133.296539,127.360428 133.515289,127.469116 133.946899,127.876068 
	C130.320297,130.963684 126.022682,132.929230 121.452591,135.091858 
z"/>
<path fill="#BF9026" opacity="1.000000" stroke="none" 
	d="
M32.035576,126.382614 
	C32.662750,126.057869 33.442009,126.028786 34.610725,126.004318 
	C36.310966,126.006165 37.226967,126.526161 37.210876,128.495255 
	C35.343464,128.288406 33.765556,127.483345 32.035576,126.382614 
z"/>
<path fill="#C49B3C" opacity="1.000000" stroke="none" 
	d="
M134.704758,126.125488 
	C135.693878,126.004677 136.382858,126.003487 137.415131,126.003372 
	C136.762695,126.683472 135.766968,127.362503 134.465485,128.107941 
	C134.159729,128.174332 134.058563,128.059616 134.008606,128.001709 
	C133.616364,127.248680 133.925461,126.724564 134.704758,126.125488 
z"/>
<path fill="#E3C54C" opacity="1.000000" stroke="none" 
	d="
M71.905533,25.893978 
	C72.659378,25.219536 73.469643,24.607786 74.823372,24.259760 
	C75.449112,26.432905 74.355499,26.801130 72.417854,26.296843 
	C72.075287,26.081587 71.961945,25.956671 71.905533,25.893978 
z"/>
<path fill="#E3C54C" opacity="1.000000" stroke="none" 
	d="
M78.095978,22.140924 
	C78.672325,21.242029 79.480583,20.628061 80.590485,19.950130 
	C80.892136,19.886168 80.990036,19.991123 81.038849,20.043730 
	C81.975700,21.654999 81.108353,22.316893 79.377350,22.712044 
	C78.782669,22.607866 78.555283,22.516859 78.095978,22.140924 
z"/>
<path fill="#E3C54C" opacity="1.000000" stroke="none" 
	d="
M74.937569,23.928139 
	C75.682426,23.250914 76.476692,22.629080 77.567505,21.931620 
	C77.864067,21.855993 77.972549,21.971941 78.026772,22.029926 
	C78.786652,24.228502 77.612091,24.656895 75.465179,24.319139 
	C75.086540,24.093651 74.986977,23.983532 74.937569,23.928139 
z"/>
<path fill="#BF9026" opacity="1.000000" stroke="none" 
	d="
M89.378601,149.192856 
	C89.512077,148.182297 90.403282,148.021790 91.737427,148.051605 
	C91.300293,148.437393 90.509399,148.814545 89.378601,149.192856 
z"/>
<path fill="#C49B3C" opacity="1.000000" stroke="none" 
	d="
M115.337982,138.108002 
	C115.512848,137.777435 115.995491,137.430801 116.793335,137.083450 
	C116.620941,137.419113 116.133347,137.755524 115.337982,138.108002 
z"/>
<path fill="#BF9026" opacity="1.000000" stroke="none" 
	d="
M92.362137,148.092789 
	C92.599815,147.770493 93.183395,147.435333 94.128082,147.097015 
	C93.895470,147.422546 93.301750,147.751236 92.362137,148.092789 
z"/>
<path fill="#BF9026" opacity="1.000000" stroke="none" 
	d="
M95.293137,146.981903 
	C95.487000,146.684937 95.984650,146.382996 96.787170,146.068359 
	C96.593658,146.362778 96.095291,146.669861 95.293137,146.981903 
z"/>
<path fill="#C49B3C" opacity="1.000000" stroke="none" 
	d="
M99.437271,145.211700 
	C99.433289,144.515274 100.007599,144.158798 101.163132,144.158737 
	C100.946716,144.517792 100.363914,144.853180 99.437271,145.211700 
z"/>
<path fill="#C49B3C" opacity="1.000000" stroke="none" 
	d="
M102.296036,144.061432 
	C102.508430,143.742966 103.042870,143.412125 103.907585,143.088791 
	C103.697937,143.413895 103.158005,143.731476 102.296036,144.061432 
z"/>
<path fill="#C49B3C" opacity="1.000000" stroke="none" 
	d="
M106.803024,141.137756 
	C107.271637,141.010864 107.518761,141.032410 108.137886,141.090149 
	C107.944275,141.475204 107.378654,141.824051 106.476074,142.203644 
	C106.286598,141.918320 106.434074,141.602249 106.803024,141.137756 
z"/>
<path fill="#C49B3C" opacity="1.000000" stroke="none" 
	d="
M109.252701,141.033447 
	C109.444206,140.717682 109.945015,140.390503 110.757477,140.054199 
	C110.566757,140.370728 110.064384,140.696396 109.252701,141.033447 
z"/>
<path fill="#C49B3C" opacity="1.000000" stroke="none" 
	d="
M111.320160,140.056549 
	C111.500687,139.742020 111.985222,139.407852 112.780594,139.069626 
	C112.602348,139.389359 112.113258,139.713135 111.320160,140.056549 
z"/>
<path fill="#C49B3C" opacity="1.000000" stroke="none" 
	d="
M113.329605,139.087677 
	C113.507629,138.765091 113.991043,138.422791 114.788071,138.078857 
	C114.612785,138.407471 114.123894,138.737701 113.329605,139.087677 
z"/>
<path fill="#C49B3C" opacity="1.000000" stroke="none" 
	d="
M117.341675,137.113449 
	C117.515785,136.783798 117.998398,136.434967 118.797310,136.086914 
	C118.625809,136.423233 118.138000,136.758759 117.341675,137.113449 
z"/>
<path fill="#C49B3C" opacity="1.000000" stroke="none" 
	d="
M119.342133,136.113586 
	C119.516487,135.787140 119.997215,135.436371 120.793991,135.085403 
	C120.622864,135.419876 120.135689,135.754562 119.342133,136.113586 
z"/>
<path fill="#BF9026" opacity="1.000000" stroke="none" 
	d="
M40.871353,131.139404 
	C40.281555,131.004303 39.746040,130.806961 39.277618,130.133514 
	C40.074989,129.461609 40.681427,129.623001 41.075001,130.611374 
	C41.031342,130.950302 40.925629,131.077179 40.871353,131.139404 
z"/>
<path fill="#BF9026" opacity="1.000000" stroke="none" 
	d="
M38.909363,130.097153 
	C38.328152,129.954468 37.790070,129.762390 37.086678,129.331894 
	C36.921368,129.093460 36.991962,129.012756 37.028183,128.973221 
	C37.802170,128.393295 38.447598,128.557175 39.033348,129.568832 
	C39.035362,129.946091 38.952488,130.047760 38.909363,130.097153 
z"/>
<path fill="#BF9026" opacity="1.000000" stroke="none" 
	d="
M30.986105,125.282204 
	C31.193386,125.219368 31.470331,125.424294 31.859184,125.866684 
	C31.665987,125.919418 31.360876,125.734695 30.986105,125.282204 
z"/>
<path fill="#C49B3C" opacity="1.000000" stroke="none" 
	d="
M105.258148,142.849915 
	C105.160721,142.563919 105.393501,142.348480 105.944580,142.178040 
	C105.959930,142.371155 105.735092,142.603638 105.258148,142.849915 
z"/>
<path fill="#BF9026" opacity="1.000000" stroke="none" 
	d="
M97.281723,146.093109 
	C97.209099,145.823486 97.384605,145.541656 97.775803,145.129852 
	C98.116776,145.146866 98.242065,145.293854 98.174141,145.656723 
	C97.980934,145.872589 97.529854,146.080917 97.281723,146.093109 
z"/>
<path fill="#C49B3C" opacity="1.000000" stroke="none" 
	d="
M98.233482,145.870941 
	C97.980934,145.872589 97.988846,145.436279 97.990173,145.218079 
	C98.187881,145.015717 98.384262,145.031525 98.870483,145.112793 
	C98.935555,145.408585 98.710793,145.638931 98.233482,145.870941 
z"/>
<path fill="#D7B034" opacity="1.000000" stroke="none" 
	d="
M134.941437,125.664719 
	C134.738068,126.487511 134.471222,126.969139 134.081512,127.697289 
	C129.282867,128.642136 125.460426,131.178589 121.312302,133.822830 
	C119.776237,131.992401 119.724228,129.978699 121.004654,128.030670 
	C123.089638,124.858604 123.242783,121.355827 122.946960,117.011162 
	C123.243782,115.722404 123.527863,115.177719 123.673126,114.240891 
	C123.883934,113.262741 124.133324,112.644112 124.783913,111.854088 
	C125.502960,111.464905 125.964073,111.450348 126.709412,111.779480 
	C131.029602,115.605583 131.106277,121.558716 134.941437,125.664719 
z"/>
<path fill="#B1771A" opacity="1.000000" stroke="none" 
	d="
M125.350357,111.653252 
	C125.111221,112.785904 125.072151,113.562088 125.029762,114.727066 
	C124.742111,115.170189 124.457779,115.224525 123.828979,115.011307 
	C122.464165,113.184898 122.401199,111.441139 122.514565,109.221298 
	C122.530403,107.874901 122.538017,106.972603 122.435150,105.608582 
	C122.326675,87.559898 121.372856,69.964447 123.114243,51.954079 
	C123.557922,51.286888 123.790771,51.059479 124.497055,50.951218 
	C124.999802,51.498188 125.029099,51.926006 125.118935,52.670044 
	C125.159477,71.335899 125.139488,89.685524 125.158752,108.499786 
	C125.644760,109.692108 125.816170,110.461418 125.350357,111.653252 
z"/>
<path fill="#DAAE2F" opacity="1.000000" stroke="none" 
	d="
M125.456032,112.006805 
	C125.127014,111.246864 125.103722,110.483994 125.139221,109.342773 
	C126.544945,109.180748 127.010216,110.064339 126.984833,111.661110 
	C126.579117,112.001770 126.170433,112.002831 125.456032,112.006805 
z"/>
<path fill="#C59828" opacity="1.000000" stroke="none" 
	d="
M39.325195,129.986267 
	C38.568871,129.638779 38.102379,129.331482 37.350147,128.978928 
	C37.008286,127.766266 36.178154,127.142479 35.180862,126.259064 
	C36.074902,124.209732 36.011520,122.221939 36.007946,120.226723 
	C35.990437,110.459175 36.171207,100.687675 35.948154,90.925194 
	C35.754963,82.469704 36.686241,74.149246 37.989105,65.412575 
	C39.227764,62.022812 39.428780,58.395882 43.443199,56.946693 
	C46.264626,59.502232 45.627518,62.383560 44.233856,65.637672 
	C42.129738,65.967766 41.171795,66.585724 40.985115,68.547043 
	C39.347389,85.753105 40.093643,102.997635 40.127148,120.227486 
	C40.131981,122.713593 41.612976,124.892288 42.932671,127.036430 
	C43.859295,128.541916 45.063145,130.533310 41.395561,130.951721 
	C40.559235,130.642365 40.087132,130.334412 39.325195,129.986267 
z"/>
<path fill="#B8841D" opacity="1.000000" stroke="none" 
	d="
M90.173485,136.686646 
	C88.119896,141.276398 83.880882,140.889252 80.627663,140.837814 
	C68.306908,140.643066 57.359447,136.020401 48.076958,128.126480 
	C44.914780,125.437325 43.530319,120.951508 43.759438,116.232246 
	C44.200649,115.863068 44.403652,115.726517 44.972012,115.639206 
	C46.534836,116.219711 47.259464,117.192154 47.933693,118.674538 
	C48.263336,119.713745 48.359055,120.428474 48.452156,121.498428 
	C48.573517,122.871170 48.836338,123.990753 49.556934,124.591675 
	C56.630512,130.490448 64.116875,135.576584 74.123535,135.961884 
	C76.702721,135.420593 78.781349,136.480072 81.317307,136.533295 
	C83.510193,136.352020 85.464951,137.009979 87.482162,135.614197 
	C88.296997,135.342285 88.784546,135.327667 89.614899,135.557617 
	C90.083794,135.927460 90.213554,136.140411 90.173485,136.686646 
z"/>
<path fill="#B8841D" opacity="1.000000" stroke="none" 
	d="
M116.764359,122.676117 
	C117.135254,125.609650 115.742027,127.430153 113.345703,128.947937 
	C110.376007,127.036621 109.879417,130.463623 108.185730,130.950623 
	C105.168938,131.818054 102.927513,134.404480 99.368454,134.992004 
	C98.462402,134.419678 98.201927,133.741943 98.355789,132.591766 
	C98.721771,131.818054 99.053963,131.471497 99.786850,131.059296 
	C101.123917,130.580521 102.223656,130.430740 103.235466,129.406631 
	C103.580818,128.815628 103.733482,128.453598 103.988083,127.819885 
	C104.175583,127.375931 104.258209,127.202431 104.493896,126.787766 
	C104.768867,126.403687 104.890770,126.260788 105.445404,125.779312 
	C106.036263,125.357117 106.194389,125.273514 106.589706,125.075363 
	C107.137840,124.802483 107.439774,124.628418 107.934067,124.262794 
	C108.270027,123.962074 108.405754,123.839211 108.761429,123.537117 
	C109.142525,123.247772 109.303688,123.137650 109.723335,122.876038 
	C110.349968,122.531990 110.727806,122.360535 111.425255,122.094124 
	C111.957397,121.929062 112.177307,121.875046 112.739700,121.772705 
	C114.287224,121.656616 115.456123,121.769341 116.764359,122.676117 
z"/>
<path fill="#AA6811" opacity="1.000000" stroke="none" 
	d="
M45.359341,115.724167 
	C44.850433,116.059097 44.680077,116.044601 44.253681,116.014870 
	C43.979805,99.637665 43.961964,83.275703 43.902557,66.443558 
	C43.882713,63.258656 43.904427,60.543934 43.861416,57.375111 
	C43.882214,55.894207 43.967735,54.867405 44.538208,53.351242 
	C45.250000,53.095715 45.476845,53.329552 45.910225,54.006069 
	C46.908215,71.812981 46.282452,89.186630 46.433331,106.555283 
	C46.458893,109.497871 46.981224,112.524254 45.359341,115.724167 
z"/>
<path fill="#B8841D" opacity="1.000000" stroke="none" 
	d="
M96.737473,134.706543 
	C96.337845,137.399094 94.837502,138.272095 92.221283,137.257401 
	C91.620506,136.583359 91.459145,136.086685 91.673248,135.143753 
	C92.715202,133.976089 93.774963,133.790527 95.314720,133.941238 
	C95.967018,134.150360 96.213776,134.274414 96.737473,134.706543 
z"/>
<path fill="#B07B19" opacity="1.000000" stroke="none" 
	d="
M97.344887,135.011246 
	C96.839432,135.006546 96.664444,134.998459 96.226929,134.979095 
	C94.989914,132.666809 96.118454,131.785049 98.628036,131.795471 
	C99.003448,132.757263 99.001228,133.504074 98.998283,134.624237 
	C98.556824,135.000992 98.116081,135.004410 97.344887,135.011246 
z"/>
<path fill="#B07B19" opacity="1.000000" stroke="none" 
	d="
M91.667847,134.828156 
	C92.006348,135.459641 92.003624,135.902100 91.999893,136.676788 
	C91.555428,137.008804 91.111977,137.008606 90.336090,137.014160 
	C90.002357,136.849014 90.001068,136.678116 90.000061,136.250824 
	C89.826515,134.939972 90.448715,134.664444 91.667847,134.828156 
z"/>
<path fill="#DFBE42" opacity="1.000000" stroke="none" 
	d="
M74.992516,24.415155 
	C76.170212,23.941912 77.398415,24.088078 77.988968,22.409060 
	C79.166519,21.942827 80.392288,22.090134 80.992920,20.416489 
	C88.196190,19.326012 92.595856,24.367178 96.701553,28.530392 
	C102.624374,34.536198 108.568542,37.325607 117.120102,35.246632 
	C121.659355,34.143093 126.664101,34.937382 131.435699,34.070171 
	C134.135605,33.579483 136.847961,33.964268 137.943420,37.629047 
	C130.100082,33.969975 126.434769,36.089867 123.007278,47.597717 
	C121.772018,49.485435 120.121857,49.375408 118.077576,49.053326 
	C112.988792,42.959908 107.207230,38.501766 99.755875,36.452290 
	C97.321739,35.782791 94.869453,35.103813 92.684677,37.809120 
	C90.409607,38.978897 88.947113,37.591877 87.558395,36.648434 
	C85.428398,35.201385 83.647316,35.479027 81.563393,37.245659 
	C79.368401,38.600540 77.033112,39.104675 75.385971,41.325317 
	C74.118553,42.264912 73.064713,42.892410 71.779037,43.869995 
	C64.195999,48.118420 56.680607,50.939304 47.784668,49.002323 
	C43.221615,44.999531 40.611862,39.533463 35.196972,36.881348 
	C34.497242,36.538635 34.382381,35.492802 34.777306,34.312378 
	C42.526833,34.622463 50.081047,36.258049 57.577190,34.032616 
	C62.768871,32.491322 67.857742,30.615761 71.983871,26.411388 
	C73.164177,25.943581 74.389572,26.092121 74.992516,24.415155 
z"/>
<path fill="#DAAE2F" opacity="1.000000" stroke="none" 
	d="
M116.641556,47.907150 
	C118.719818,48.004475 120.431419,47.998131 122.570702,47.983753 
	C124.036743,48.476109 124.783188,49.209518 124.956604,50.740906 
	C124.767540,51.067554 124.564590,51.064739 124.057236,51.057407 
	C123.527588,51.187248 123.302353,51.321602 122.688499,51.515743 
	C114.936981,52.938160 107.872025,52.401413 101.415184,48.206261 
	C99.646912,47.057369 97.569611,46.194523 96.924934,43.513290 
	C98.570251,41.477757 100.395271,42.099716 101.945625,42.945526 
	C106.455093,45.405720 111.330566,46.682686 116.641556,47.907150 
z"/>
<path fill="#DFBE42" opacity="1.000000" stroke="none" 
	d="
M137.669922,48.057838 
	C137.996780,48.749771 137.997849,49.499996 137.997314,50.625336 
	C135.954956,50.450977 135.226227,49.605103 137.669922,48.057838 
z"/>
<path fill="#DBCDB0" opacity="1.000000" stroke="none" 
	d="
M122.643364,51.107769 
	C122.987999,51.003555 123.369949,51.046894 123.561386,51.049892 
	C123.811676,69.070793 123.870529,87.088692 123.849213,105.571243 
	C123.223824,106.766762 122.945625,107.538277 123.580856,108.692726 
	C123.757050,110.725555 123.758247,112.487831 123.613960,114.667496 
	C123.617943,115.543571 123.599342,115.995354 123.149330,116.672745 
	C122.885986,116.905281 122.852631,116.887817 122.836700,116.873825 
	C122.386597,117.118225 121.952423,117.376617 121.324745,117.801926 
	C118.360092,119.981766 115.317871,121.474342 111.783798,122.809708 
	C111.449608,122.955116 111.486702,122.923386 111.463196,122.916801 
	C110.994324,123.145325 110.571625,123.415855 109.816681,123.848953 
	C109.461792,123.976135 109.452515,123.876022 109.402275,123.874229 
	C109.090981,124.104324 108.835625,124.342323 108.454208,124.813309 
	C108.184792,125.147781 108.048042,125.256332 107.655670,125.419800 
	C107.050407,125.487175 106.710686,125.550461 106.151299,125.793350 
	C105.920052,125.913574 105.921593,125.963287 105.942513,125.949844 
	C105.776268,126.210815 105.558006,126.457733 105.109818,126.824814 
	C104.911003,126.972466 104.970413,126.890907 104.928925,126.862198 
	C100.795708,131.418503 94.880295,132.216507 89.181145,134.320251 
	C88.321632,134.529739 87.839417,134.680206 86.998764,134.966736 
	C84.520950,135.499512 82.592804,134.823608 80.336716,133.938843 
	C77.193871,131.355225 73.764824,130.273117 69.940872,129.162125 
	C62.843094,125.308830 55.652100,122.452698 48.616844,118.352142 
	C45.824810,116.357132 45.461529,113.881783 45.472488,111.073517 
	C45.541756,93.324631 45.502968,75.575340 45.513828,57.826183 
	C45.515148,55.673237 45.536568,53.524086 45.243641,50.955788 
	C46.247513,48.931656 47.651699,49.004734 49.466618,49.555992 
	C49.893452,50.497932 48.671082,51.597736 50.777184,51.670773 
	C55.847645,51.846603 60.624985,50.971230 65.458588,48.582802 
	C66.107574,48.170227 66.469620,47.924091 67.092896,47.489487 
	C68.311073,46.717434 68.814034,45.757607 69.615570,44.604591 
	C70.424110,43.950684 71.073883,43.696388 72.063812,43.307671 
	C73.125992,42.749439 74.075775,42.709869 74.675102,42.171814 
	C80.892937,36.589672 87.144211,36.796978 93.794769,42.134247 
	C102.127838,49.669636 111.121452,53.901226 122.643364,51.107769 
z"/>
<path fill="#8A5E2C" opacity="1.000000" stroke="none" 
	d="
M111.912048,123.005585 
	C113.889351,120.345947 117.121300,119.151947 120.745003,117.968330 
	C120.002777,119.564651 119.929726,121.954407 117.308960,122.795959 
	C115.464844,122.978294 113.919662,123.017174 111.912048,123.005585 
z"/>
<path fill="#DBB93E" opacity="1.000000" stroke="none" 
	d="
M34.620743,34.001064 
	C35.062096,35.467941 35.764896,36.624180 37.135223,37.012989 
	C42.443211,38.519066 44.440880,43.106182 46.962082,47.619804 
	C46.841625,48.611130 46.343655,49.012707 45.758713,49.733902 
	C45.524696,50.408836 45.486027,50.819798 45.431782,51.539555 
	C45.164425,52.203712 44.867226,52.473484 44.257782,52.853989 
	C44.036865,53.068821 44.027935,53.041462 44.047817,53.053764 
	C41.557926,52.651840 39.652977,54.318478 37.491627,55.054684 
	C35.520000,55.726261 33.676582,56.073433 31.386860,55.039402 
	C31.242867,48.202057 30.517553,41.397072 31.694180,34.314297 
	C32.726685,34.002991 33.484486,34.001492 34.620743,34.001064 
z"/>
<path fill="#DAAE2F" opacity="1.000000" stroke="none" 
	d="
M123.206650,116.893509 
	C122.967155,116.414101 123.048317,115.922920 123.298981,115.258308 
	C123.728226,115.081985 123.987961,115.079102 124.637077,115.096039 
	C124.876900,116.001762 124.551590,116.738449 123.206650,116.893509 
z"/>
<path fill="#E3D8C0" opacity="1.000000" stroke="none" 
	d="
M123.817535,108.599998 
	C121.809158,108.394562 121.339920,107.517036 123.469376,106.097427 
	C123.805756,106.769501 123.842484,107.503105 123.817535,108.599998 
z"/>
<path fill="#A36812" opacity="1.000000" stroke="none" 
	d="
M82.209976,137.668671 
	C79.579788,137.646240 77.195869,137.323013 74.406273,136.998337 
	C63.563023,135.115616 54.623886,130.497910 47.275955,122.240173 
	C47.011494,121.202644 47.004604,120.428894 46.997406,119.268234 
	C47.387131,118.559471 47.830471,118.364410 48.700493,118.372131 
	C55.670963,122.313019 62.435253,125.892097 69.854523,128.943359 
	C70.700516,129.029251 71.182716,129.096863 71.994904,129.349930 
	C75.155960,131.962433 78.711914,133.017990 82.264099,134.841568 
	C82.814621,135.886673 82.799545,136.631027 82.209976,137.668671 
z"/>
<path fill="#85603C" opacity="1.000000" stroke="none" 
	d="
M49.180847,119.167915 
	C48.457985,118.986290 48.040688,118.960129 47.310242,118.907654 
	C46.432720,118.111290 45.868347,117.341248 45.162384,116.322395 
	C45.007526,95.393120 44.994259,74.712654 44.970818,53.570457 
	C44.829494,52.936893 44.698345,52.765057 44.714088,52.304142 
	C44.931602,51.628136 45.002224,51.241207 45.082039,50.559128 
	C45.237560,50.071308 45.383884,49.878628 45.772312,49.956306 
	C46.022312,70.352753 46.074413,90.479019 45.991257,110.604729 
	C45.978539,113.682945 46.467873,116.196053 49.729103,117.869583 
	C50.040821,118.648216 49.877079,119.030167 49.180847,119.167915 
z"/>
<path fill="#B07B19" opacity="1.000000" stroke="none" 
	d="
M47.052490,122.334038 
	C51.509514,124.336945 54.797764,128.356094 59.356491,130.697220 
	C63.927040,133.044418 68.607056,135.000900 73.756805,136.731033 
	C69.742104,139.034561 66.228661,136.233078 62.911530,134.668533 
	C56.895245,131.830917 50.240925,129.457367 47.052490,122.334038 
z"/>
<path fill="#A36812" opacity="1.000000" stroke="none" 
	d="
M87.867004,133.190826 
	C93.774300,131.883270 98.793320,128.920242 104.524338,126.858086 
	C104.926048,127.316574 104.964661,127.799660 105.003700,128.645508 
	C103.983734,130.093811 102.548950,130.597580 101.207321,131.767761 
	C100.541336,131.988815 100.102486,131.993118 99.334656,132.003937 
	C97.486641,132.081390 96.427620,132.743393 96.014420,134.633667 
	C94.909828,134.979233 93.855263,134.990646 92.404877,135.009613 
	C91.457542,135.186111 90.906013,135.355072 90.177414,135.759247 
	C89.555023,136.001556 89.109703,136.008652 88.330505,136.025543 
	C87.849274,135.907227 87.701920,135.779114 87.441994,135.380554 
	C87.322128,134.915161 87.314819,134.720245 87.401703,134.249054 
	C87.560699,133.789459 87.625504,133.606140 87.867004,133.190826 
z"/>
<path fill="#B07B19" opacity="1.000000" stroke="none" 
	d="
M87.601151,134.820190 
	C87.972778,135.071335 87.984863,135.552917 87.990753,135.794128 
	C87.187271,139.156921 84.619461,137.594635 82.375374,137.980316 
	C81.989510,137.272873 82.015305,136.576294 82.065231,135.531525 
	C83.665230,133.827820 85.514915,134.763519 87.601151,134.820190 
z"/>
<path fill="#B07B19" opacity="1.000000" stroke="none" 
	d="
M101.326630,131.952240 
	C101.197746,129.990005 102.779831,129.561447 104.659470,129.043549 
	C104.803047,131.019073 103.214310,131.442352 101.326630,131.952240 
z"/>
<path fill="#A36812" opacity="1.000000" stroke="none" 
	d="
M106.881905,125.185043 
	C107.121223,124.886703 107.301758,124.772842 107.377655,124.847870 
	C107.742989,124.817482 108.032417,124.712074 108.697128,124.876190 
	C108.621407,125.444565 108.170410,125.743416 107.437592,126.046448 
	C106.984711,125.861542 106.813644,125.672455 106.881905,125.185043 
z"/>
<path fill="#8A5E2C" opacity="1.000000" stroke="none" 
	d="
M109.836472,123.899109 
	C109.854149,123.644249 110.246506,123.312370 111.039276,122.945351 
	C111.030182,123.214180 110.620667,123.518135 109.836472,123.899109 
z"/>
<path fill="#8A5E2C" opacity="1.000000" stroke="none" 
	d="
M109.142288,124.827393 
	C108.803818,125.101540 108.535233,125.057365 107.860107,124.968048 
	C107.836060,124.611938 108.218559,124.300980 108.976547,123.931229 
	C109.305412,124.084648 109.258781,124.296852 109.142288,124.827393 
z"/>
<path fill="#8A5E2C" opacity="1.000000" stroke="none" 
	d="
M106.825287,124.932037 
	C107.118973,125.080788 107.116730,125.274864 107.135124,125.759781 
	C106.947479,126.049622 106.739182,126.048630 106.225471,125.980606 
	C106.123154,125.601509 106.326248,125.289444 106.825287,124.932037 
z"/>
<path fill="#A36812" opacity="1.000000" stroke="none" 
	d="
M105.148712,126.870239 
	C105.066902,126.634193 105.222801,126.295914 105.671066,125.947021 
	C105.771095,126.213600 105.578758,126.490807 105.148712,126.870239 
z"/>
<path fill="#D4AF36" opacity="1.000000" stroke="none" 
	d="
M44.670124,52.143566 
	C44.889721,52.195797 44.918468,52.376530 44.953926,52.832996 
	C44.960644,53.108734 44.499065,53.076794 44.267967,53.072807 
	C44.097206,52.754822 44.244675,52.489235 44.670124,52.143566 
z"/>
<path fill="#E3C54C" opacity="1.000000" stroke="none" 
	d="
M116.998398,47.643585 
	C113.144440,49.739143 109.729752,47.850697 106.264587,46.614174 
	C103.334793,45.568695 100.928421,43.238194 96.957672,43.014168 
	C95.743874,42.675499 95.220978,42.354313 94.402725,41.917953 
	C93.964584,41.628815 93.796875,41.499657 93.407585,41.139931 
	C92.661797,40.219440 92.241318,39.476799 92.017525,38.306412 
	C91.961090,35.987881 92.417152,34.429138 94.780144,34.038967 
	C100.951523,33.019974 114.677757,41.159561 116.998398,47.643585 
z"/>
<path fill="#DAAE2F" opacity="1.000000" stroke="none" 
	d="
M46.375893,50.151733 
	C46.014412,50.226669 45.550854,50.197842 45.321045,50.230911 
	C45.068169,49.289490 45.254715,48.436466 46.676102,48.037235 
	C55.696617,49.255295 63.599800,46.708961 71.635757,43.496895 
	C71.506172,44.308620 71.008492,44.634659 70.236633,45.078178 
	C69.252113,45.984886 68.983780,47.068470 67.951035,47.993340 
	C67.686653,48.167629 67.459724,48.371986 67.426201,48.443420 
	C61.941235,50.173538 56.756809,53.313416 50.376995,51.249779 
	C49.192493,49.805271 47.945499,50.013306 46.375893,50.151733 
z"/>
<path fill="#DAAE2F" opacity="1.000000" stroke="none" 
	d="
M91.698242,37.832848 
	C93.034119,38.508049 93.815170,39.219711 93.862625,40.790089 
	C91.722656,42.441326 90.263672,40.772316 89.015648,39.724018 
	C86.944214,37.984089 84.774033,37.298946 81.591255,37.352783 
	C82.422012,33.446285 84.805305,33.337620 87.693657,35.174149 
	C88.949280,35.972530 90.158516,36.843884 91.698242,37.832848 
z"/>
<path fill="#DAAE2F" opacity="1.000000" stroke="none" 
	d="
M75.654831,41.248966 
	C75.386620,37.888870 77.829201,37.452320 80.636917,37.011871 
	C81.008095,37.015827 81.039436,37.050167 81.054489,37.067909 
	C80.898766,40.099960 77.911728,40.038559 75.654831,41.248966 
z"/>
<path fill="#DAAE2F" opacity="1.000000" stroke="none" 
	d="
M72.049896,43.050186 
	C72.077805,41.547741 72.948570,40.999588 74.667923,41.022324 
	C75.022758,41.033062 75.064720,41.081211 75.085114,41.105789 
	C75.256485,42.814278 74.221642,43.318150 72.461624,43.281502 
	C72.118217,43.120899 72.072502,43.073917 72.049896,43.050186 
z"/>
<path fill="#E3D8C0" opacity="1.000000" stroke="none" 
	d="
M122.751038,50.695694 
	C122.801521,52.039452 123.306000,53.594219 121.493279,53.546127 
	C111.285858,53.275330 101.628983,51.425282 94.302780,43.092972 
	C95.166229,42.208809 95.827400,42.215443 96.715424,42.820450 
	C96.952660,43.070904 96.893326,43.085865 96.880142,43.113785 
	C103.524208,48.471947 110.484894,52.773106 119.621460,50.228493 
	C120.502525,49.983109 121.545990,50.320812 122.751038,50.695694 
z"/>
<path fill="#664010" opacity="1.000000" stroke="none" 
	d="
M90.257523,82.624886 
	C94.748421,83.820007 98.148407,85.630394 98.321457,90.553391 
	C98.503510,95.732086 95.470421,98.454872 90.908096,99.819527 
	C89.372650,100.278809 88.113052,100.660065 88.067909,102.624985 
	C88.024498,104.514748 86.476707,104.451004 85.148972,104.498924 
	C83.798782,104.547661 82.863770,103.980896 82.849739,102.512238 
	C82.830635,100.513016 81.459999,100.163620 79.909767,99.811874 
	C78.955994,99.595459 78.014252,99.155807 77.173904,98.641800 
	C74.670334,97.110497 71.641251,94.638016 73.342300,92.078217 
	C74.999390,89.584572 78.502632,90.274239 80.808685,93.109596 
	C82.012512,94.589722 83.986702,94.868530 85.846451,94.791832 
	C88.036469,94.701500 90.473053,94.512558 90.910652,91.793983 
	C91.344810,89.096794 88.919128,88.688469 87.073563,88.088943 
	C84.393539,87.218346 81.605400,86.656631 78.971954,85.672600 
	C75.582977,84.406265 73.412209,81.910385 73.401451,78.168465 
	C73.390976,74.525475 75.322647,71.875267 78.545448,70.249512 
	C80.517586,69.254662 82.663803,69.037422 83.353912,66.003387 
	C83.747520,64.272919 87.372856,63.910488 87.766060,66.216843 
	C88.271400,69.180939 90.182228,69.368340 92.030312,70.221466 
	C92.480034,70.429077 92.929863,70.679100 93.305649,70.997070 
	C95.324448,72.705322 98.468269,74.901543 96.670540,77.300896 
	C95.187889,79.279739 91.550331,78.926949 89.339676,76.244934 
	C88.185593,74.844772 86.454727,74.693817 84.755150,74.796799 
	C83.057526,74.899666 81.277504,75.093971 80.903023,77.193497 
	C80.533096,79.267540 82.022995,80.216789 83.657181,80.766876 
	C85.696945,81.453491 87.808502,81.926826 90.257523,82.624886 
z"/>
<path fill="#805023" opacity="1.000000" stroke="none" 
	d="
M49.065578,119.304192 
	C49.181007,118.921677 49.452419,118.769676 49.814835,118.359665 
	C56.442783,121.334045 62.945423,124.505203 69.720039,127.888641 
	C70.343102,128.462524 70.491013,128.893814 70.216515,129.682220 
	C62.346745,127.984764 55.702599,123.987709 49.065578,119.304192 
z"/>
<path fill="#E3D8C0" opacity="1.000000" stroke="none" 
	d="
M72.080132,43.335060 
	C73.298370,43.179008 74.112297,42.552391 74.952087,41.408813 
	C77.381546,40.622929 78.996826,39.029675 80.916992,37.386204 
	C84.056976,35.619968 86.625443,36.027527 89.036064,38.458870 
	C90.148293,39.580654 91.746422,40.220688 93.475082,41.098137 
	C93.825928,41.117126 93.892975,41.099110 93.921455,41.079266 
	C94.325333,41.397022 94.485512,41.821442 94.264587,42.624180 
	C94.070206,42.927166 94.036613,42.961704 94.019737,42.978836 
	C93.047760,42.816216 91.776634,42.967670 91.186897,42.404984 
	C85.843262,37.306541 80.851295,38.898502 75.978806,43.044121 
	C74.992020,43.883701 73.931145,43.976177 72.390060,43.987576 
	C72.003860,43.982578 72.042046,43.549217 72.080132,43.335060 
z"/>
<path fill="#E4D9C1" opacity="1.000000" stroke="none" 
	d="
M49.757732,50.985939 
	C56.005550,51.888569 61.309132,49.274776 67.119705,48.241135 
	C61.880177,52.752071 55.796410,54.128189 49.059635,52.137642 
	C48.715282,52.035889 48.450493,51.664867 48.148655,51.419216 
	C48.581028,51.279205 49.013397,51.139194 49.757732,50.985939 
z"/>
<path fill="#805023" opacity="1.000000" stroke="none" 
	d="
M87.986313,134.799164 
	C86.289635,135.086334 84.606499,135.101318 82.506363,135.149811 
	C78.543457,134.312912 74.823349,133.839569 72.165192,130.513275 
	C75.021645,129.657608 77.284569,131.175507 79.914192,132.711914 
	C82.065041,133.136917 83.905449,133.363144 86.082428,133.679230 
	C86.692802,133.723022 86.966606,133.676910 87.618065,133.806412 
	C87.997093,134.163681 87.998466,134.345352 87.986313,134.799164 
z"/>
<path fill="#86592A" opacity="1.000000" stroke="none" 
	d="
M80.008026,132.645050 
	C77.737068,132.075012 75.249504,131.239319 72.442223,130.290939 
	C71.650909,130.120773 71.179314,130.063263 70.352493,129.987717 
	C69.993416,129.554321 69.989571,129.138977 69.988869,128.412277 
	C73.447372,129.094437 76.938026,130.007126 80.008026,132.645050 
z"/>
<path fill="#E3D8C0" opacity="1.000000" stroke="none" 
	d="
M68.041618,48.079987 
	C67.478798,46.796120 68.515640,46.149242 69.640144,45.280704 
	C70.001152,46.441799 69.920822,47.621296 68.041618,48.079987 
z"/>
<path fill="#86592A" opacity="1.000000" stroke="none" 
	d="
M88.008629,133.726273 
	C87.732491,133.954987 87.469261,133.927948 86.812515,133.835007 
	C86.752754,133.525620 87.086510,133.282104 87.731995,132.998718 
	C88.036331,133.129395 88.028938,133.299957 88.008629,133.726273 
z"/>
<path fill="#DAAE2F" opacity="1.000000" stroke="none" 
	d="
M94.429962,42.958992 
	C93.990456,42.512264 93.910698,42.097363 93.890442,41.370941 
	C95.155357,40.984783 96.388641,40.847321 96.920639,42.716946 
	C96.231674,43.044209 95.510696,43.017509 94.429962,42.958992 
z"/>
</svg>