<svg width="72" height="24" viewBox="0 0 72 24" fill="none" xmlns="http://www.w3.org/2000/svg">
<path d="M21.6486 19.8756C20.2208 17.4072 18.0205 15.6372 15.4527 14.7981C16.7229 14.042 17.7097 12.8898 18.2617 11.5185C18.8136 10.1473 18.9002 8.63272 18.5081 7.20749C18.116 5.78226 17.2668 4.52515 16.0911 3.62921C14.9154 2.73327 13.4781 2.24805 11.9999 2.24805C10.5217 2.24805 9.08438 2.73327 7.90866 3.62921C6.73294 4.52515 5.88382 5.78226 5.49171 7.20749C5.09959 8.63272 5.18616 10.1473 5.73813 11.5185C6.29009 12.8898 7.27692 14.042 8.54708 14.7981C5.97926 15.6362 3.77895 17.4062 2.35114 19.8756C2.29878 19.961 2.26405 20.056 2.249 20.155C2.23394 20.254 2.23888 20.355 2.2635 20.4521C2.28813 20.5492 2.33195 20.6404 2.39238 20.7202C2.45281 20.8001 2.52862 20.867 2.61535 20.9171C2.70207 20.9672 2.79795 20.9995 2.89733 21.0119C2.99671 21.0243 3.09757 21.0167 3.19397 20.9896C3.29037 20.9624 3.38034 20.9162 3.45859 20.8537C3.53684 20.7912 3.60178 20.7136 3.64958 20.6256C5.41583 17.5731 8.5377 15.7506 11.9999 15.7506C15.4621 15.7506 18.584 17.5731 20.3502 20.6256C20.398 20.7136 20.4629 20.7912 20.5412 20.8537C20.6194 20.9162 20.7094 20.9624 20.8058 20.9896C20.9022 21.0167 21.0031 21.0243 21.1024 21.0119C21.2018 20.9995 21.2977 20.9672 21.3844 20.9171C21.4712 20.867 21.547 20.8001 21.6074 20.7202C21.6678 20.6404 21.7116 20.5492 21.7363 20.4521C21.7609 20.355 21.7658 20.254 21.7508 20.155C21.7357 20.056 21.701 19.961 21.6486 19.8756ZM6.74989 9.0006C6.74989 7.96225 7.05779 6.94721 7.63467 6.08385C8.21155 5.2205 9.03149 4.54759 9.9908 4.15023C10.9501 3.75287 12.0057 3.6489 13.0241 3.85147C14.0425 4.05405 14.978 4.55406 15.7122 5.28829C16.4464 6.02251 16.9464 6.95797 17.149 7.97637C17.3516 8.99477 17.2476 10.0504 16.8503 11.0097C16.4529 11.969 15.78 12.7889 14.9166 13.3658C14.0533 13.9427 13.0382 14.2506 11.9999 14.2506C10.608 14.2491 9.27347 13.6955 8.28922 12.7113C7.30498 11.727 6.75138 10.3925 6.74989 9.0006Z" fill="#0E0F0C"/>
<path d="M38.8296 9.61719C38.7832 9.183 38.5877 8.84493 38.243 8.60298C37.9016 8.36103 37.4575 8.24006 36.9106 8.24006C36.5261 8.24006 36.1963 8.29806 35.9213 8.41406C35.6462 8.53007 35.4357 8.6875 35.2899 8.88636C35.144 9.08523 35.0695 9.31226 35.0661 9.56747C35.0661 9.77959 35.1142 9.96354 35.2103 10.1193C35.3097 10.2751 35.444 10.4077 35.613 10.517C35.782 10.6231 35.9693 10.7126 36.1748 10.7855C36.3803 10.8584 36.5874 10.9197 36.7963 10.9695L37.7508 11.2081C38.1353 11.2976 38.5048 11.4186 38.8595 11.571C39.2174 11.7235 39.5373 11.9157 39.819 12.1477C40.104 12.3797 40.3294 12.6598 40.4951 12.9879C40.6608 13.3161 40.7437 13.7005 40.7437 14.1413C40.7437 14.7379 40.5912 15.2633 40.2863 15.7173C39.9814 16.1681 39.5406 16.5211 38.9639 16.7763C38.3905 17.0282 37.6961 17.1541 36.8808 17.1541C36.0886 17.1541 35.4009 17.0315 34.8176 16.7862C34.2375 16.541 33.7835 16.183 33.4553 15.7124C33.1305 15.2417 32.9549 14.6683 32.9284 13.9922H34.743C34.7695 14.3468 34.8789 14.6418 35.0711 14.8771C35.2633 15.1125 35.5136 15.2881 35.8218 15.4041C36.1334 15.5201 36.4814 15.5781 36.8659 15.5781C37.2669 15.5781 37.6182 15.5185 37.9198 15.3991C38.2248 15.2765 38.4634 15.1075 38.6357 14.892C38.8081 14.6733 38.8959 14.4181 38.8992 14.1264C38.8959 13.8613 38.818 13.6425 38.6656 13.4702C38.5131 13.2945 38.2993 13.1487 38.0242 13.0327C37.7525 12.9134 37.4343 12.8073 37.0697 12.7145L35.9113 12.4162C35.0728 12.2008 34.4099 11.8743 33.9227 11.4368C33.4388 10.996 33.1968 10.411 33.1968 9.68182C33.1968 9.08191 33.3592 8.55658 33.684 8.10582C34.0122 7.65507 34.4579 7.3054 35.0214 7.05682C35.5848 6.80492 36.2229 6.67898 36.9355 6.67898C37.658 6.67898 38.291 6.80492 38.8346 7.05682C39.3815 7.3054 39.8107 7.65175 40.1222 8.09588C40.4338 8.53669 40.5945 9.0438 40.6045 9.61719H38.8296ZM45.8642 17.1491C45.0986 17.1491 44.4373 16.9901 43.8805 16.6719C43.327 16.3504 42.9011 15.8963 42.6028 15.3097C42.3045 14.7197 42.1554 14.0253 42.1554 13.2266C42.1554 12.4411 42.3045 11.7517 42.6028 11.1584C42.9044 10.5618 43.3254 10.0978 43.8656 9.76633C44.4059 9.43158 45.0406 9.2642 45.7697 9.2642C46.2404 9.2642 46.6845 9.34044 47.1021 9.4929C47.523 9.64205 47.8943 9.87405 48.2157 10.1889C48.5406 10.5038 48.7958 10.9048 48.9814 11.392C49.167 11.8759 49.2598 12.4527 49.2598 13.1222V13.674H43.0006V12.4609H47.5346C47.5313 12.1162 47.4568 11.8097 47.3109 11.5412C47.1651 11.2694 46.9613 11.0556 46.6994 10.8999C46.4409 10.7441 46.1393 10.6662 45.7946 10.6662C45.4267 10.6662 45.1035 10.7557 44.8251 10.9347C44.5467 11.1103 44.3296 11.3423 44.1738 11.6307C44.0214 11.9157 43.9435 12.2289 43.9402 12.5703V13.6293C43.9402 14.0734 44.0214 14.4545 44.1838 14.7727C44.3462 15.0876 44.5732 15.3295 44.8649 15.4986C45.1566 15.6643 45.4979 15.7472 45.889 15.7472C46.1509 15.7472 46.3879 15.7107 46.6 15.6378C46.8121 15.5616 46.9961 15.4505 47.1518 15.3047C47.3076 15.1589 47.4253 14.9782 47.5048 14.7628L49.1852 14.9517C49.0791 15.3958 48.877 15.7836 48.5787 16.1151C48.2837 16.4432 47.9059 16.6984 47.4452 16.8807C46.9845 17.0597 46.4575 17.1491 45.8642 17.1491ZM52.757 6.81818V17H50.9573V6.81818H52.757ZM56.5824 6.81818V17H54.7827V6.81818H56.5824ZM61.9888 17.1491C61.2232 17.1491 60.562 16.9901 60.0051 16.6719C59.4516 16.3504 59.0257 15.8963 58.7274 15.3097C58.4291 14.7197 58.28 14.0253 58.28 13.2266C58.28 12.4411 58.4291 11.7517 58.7274 11.1584C59.029 10.5618 59.45 10.0978 59.9902 9.76633C60.5305 9.43158 61.1652 9.2642 61.8943 9.2642C62.365 9.2642 62.8091 9.34044 63.2267 9.4929C63.6477 9.64205 64.0189 9.87405 64.3404 10.1889C64.6652 10.5038 64.9204 10.9048 65.106 11.392C65.2916 11.8759 65.3844 12.4527 65.3844 13.1222V13.674H59.1252V12.4609H63.6593C63.6559 12.1162 63.5814 11.8097 63.4355 11.5412C63.2897 11.2694 63.0859 11.0556 62.824 10.8999C62.5655 10.7441 62.2639 10.6662 61.9192 10.6662C61.5513 10.6662 61.2281 10.7557 60.9497 10.9347C60.6713 11.1103 60.4542 11.3423 60.2985 11.6307C60.146 11.9157 60.0681 12.2289 60.0648 12.5703V13.6293C60.0648 14.0734 60.146 14.4545 60.3084 14.7727C60.4708 15.0876 60.6978 15.3295 60.9895 15.4986C61.2812 15.6643 61.6226 15.7472 62.0137 15.7472C62.2755 15.7472 62.5125 15.7107 62.7246 15.6378C62.9367 15.5616 63.1207 15.4505 63.2764 15.3047C63.4322 15.1589 63.5499 14.9782 63.6294 14.7628L65.3098 14.9517C65.2038 15.3958 65.0016 15.7836 64.7033 16.1151C64.4083 16.4432 64.0305 16.6984 63.5698 16.8807C63.1091 17.0597 62.5821 17.1491 61.9888 17.1491ZM67.0819 17V9.36364H68.827V10.6364H68.9065C69.0457 10.1955 69.2844 9.85582 69.6224 9.61719C69.9638 9.37524 70.3532 9.25426 70.7907 9.25426C70.8902 9.25426 71.0012 9.25923 71.1238 9.26918C71.2498 9.2758 71.3542 9.2874 71.4371 9.30398V10.9595C71.3608 10.933 71.2398 10.9098 71.0741 10.8899C70.9117 10.8667 70.7543 10.8551 70.6018 10.8551C70.2737 10.8551 69.9787 10.9264 69.7169 11.0689C69.4584 11.2081 69.2545 11.402 69.1054 11.6506C68.9562 11.8991 68.8817 12.1858 68.8817 12.5107V17H67.0819Z" fill="#0E0F0C"/>
</svg>
