<svg width="24" height="24" viewBox="0 0 24 24" fill="none" xmlns="http://www.w3.org/2000/svg">
<g id="TagChevron">
<path id="Vector" d="M22.2469 11.1675L18.2475 5.1675C18.1105 4.96215 17.9249 4.79379 17.7073 4.67735C17.4896 4.56091 17.2465 4.49999 16.9997 4.5H2.24999C2.11316 4.5 1.97894 4.53744 1.86186 4.60825C1.74478 4.67906 1.6493 4.78055 1.58576 4.90174C1.52222 5.02292 1.49305 5.15918 1.5014 5.29575C1.50974 5.43233 1.5553 5.56402 1.63312 5.67656L5.99999 12L1.63312 18.3234C1.5553 18.436 1.50974 18.5677 1.5014 18.7042C1.49305 18.8408 1.52222 18.9771 1.58576 19.0983C1.6493 19.2194 1.74478 19.3209 1.86186 19.3918C1.97894 19.4626 2.11316 19.5 2.24999 19.5H16.9997C17.2465 19.5 17.4896 19.4391 17.7073 19.3226C17.9249 19.2062 18.1105 19.0378 18.2475 18.8325L22.2469 12.8325C22.4113 12.586 22.4991 12.2963 22.4991 12C22.4991 11.7037 22.4113 11.414 22.2469 11.1675ZM16.9969 18H3.67968L7.24218 12.8438L7.24968 12.8344C7.41414 12.5879 7.5019 12.2982 7.5019 12.0019C7.5019 11.7056 7.41414 11.4159 7.24968 11.1694L7.24218 11.16L3.67968 6.00375H16.9997L21 12L16.9969 18Z" fill="#163300" fill-opacity="0.32"/>
</g>
</svg>
