<svg width="17" height="16" viewBox="0 0 17 16" fill="none" xmlns="http://www.w3.org/2000/svg">
<g id="CaretUp">
<path id="Vector" d="M14.3272 10.3541C14.2807 10.4006 14.2256 10.4375 14.1649 10.4627C14.1042 10.4878 14.0391 10.5008 13.9734 10.5008C13.9077 10.5008 13.8427 10.4878 13.782 10.4627C13.7213 10.4375 13.6661 10.4006 13.6197 10.3541L8.97342 5.70727L4.32717 10.3541C4.23335 10.448 4.1061 10.5007 3.97342 10.5007C3.84074 10.5007 3.71349 10.448 3.61967 10.3541C3.52585 10.2603 3.47314 10.1331 3.47314 10.0004C3.47314 9.86771 3.52585 9.74046 3.61967 9.64664L8.61967 4.64664C8.66611 4.60015 8.72125 4.56328 8.78195 4.53811C8.84265 4.51295 8.90771 4.5 8.97342 4.5C9.03913 4.5 9.10419 4.51295 9.16489 4.53811C9.22559 4.56328 9.28074 4.60015 9.32717 4.64664L14.3272 9.64664C14.3737 9.69308 14.4105 9.74822 14.4357 9.80892C14.4609 9.86962 14.4738 9.93469 14.4738 10.0004C14.4738 10.0661 14.4609 10.1312 14.4357 10.1919C14.4105 10.2526 14.3737 10.3077 14.3272 10.3541Z" fill="#0E0F0C"/>
</g>
</svg>
