<svg width="33" height="32" viewBox="0 0 33 32" fill="none" xmlns="http://www.w3.org/2000/svg">
<g id="User">
<path id="Vector" d="M29.3651 26.4995C27.4613 23.2082 24.5276 20.8482 21.1038 19.7295C22.7974 18.7213 24.1132 17.1851 24.8491 15.3567C25.5851 13.5284 25.7005 11.509 25.1777 9.60869C24.6548 7.70838 23.5227 6.03224 21.9551 4.83765C20.3874 3.64306 18.471 2.99609 16.5001 2.99609C14.5292 2.99609 12.6128 3.64306 11.0451 4.83765C9.47749 6.03224 8.34534 7.70838 7.82252 9.60869C7.2997 11.509 7.41513 13.5284 8.15108 15.3567C8.88703 17.1851 10.2028 18.7213 11.8963 19.7295C8.47259 20.847 5.53884 23.207 3.63509 26.4995C3.56528 26.6133 3.51897 26.74 3.49891 26.872C3.47884 27.004 3.48541 27.1387 3.51825 27.2682C3.55108 27.3976 3.60951 27.5192 3.69008 27.6257C3.77066 27.7322 3.87174 27.8214 3.98738 27.8882C4.10301 27.955 4.23085 27.998 4.36335 28.0146C4.49586 28.0311 4.63034 28.021 4.75887 27.9848C4.8874 27.9486 5.00737 27.8869 5.1117 27.8036C5.21604 27.7202 5.30262 27.6168 5.36634 27.4995C7.72134 23.4295 11.8838 20.9995 16.5001 20.9995C21.1163 20.9995 25.2788 23.4295 27.6338 27.4995C27.6976 27.6168 27.7841 27.7202 27.8885 27.8036C27.9928 27.8869 28.1128 27.9486 28.2413 27.9848C28.3698 28.021 28.5043 28.0311 28.6368 28.0146C28.7693 27.998 28.8972 27.955 29.0128 27.8882C29.1284 27.8214 29.2295 27.7322 29.3101 27.6257C29.3907 27.5192 29.4491 27.3976 29.4819 27.2682C29.5148 27.1387 29.5213 27.004 29.5013 26.872C29.4812 26.74 29.4349 26.6133 29.3651 26.4995ZM9.50009 11.9995C9.50009 10.615 9.91064 9.26165 10.6798 8.1105C11.449 6.95936 12.5422 6.06215 13.8213 5.53234C15.1004 5.00252 16.5079 4.8639 17.8657 5.134C19.2236 5.40409 20.4709 6.07078 21.4498 7.04975C22.4288 8.02871 23.0955 9.276 23.3656 10.6339C23.6357 11.9917 23.4971 13.3992 22.9672 14.6783C22.4374 15.9574 21.5402 17.0506 20.3891 17.8198C19.2379 18.589 17.8846 18.9995 16.5001 18.9995C14.6442 18.9975 12.8649 18.2594 11.5525 16.9471C10.2402 15.6347 9.50208 13.8554 9.50009 11.9995Z" fill="#163300" fill-opacity="0.4"/>
</g>
</svg>
