<svg width="15" height="14" viewBox="0 0 15 14" fill="none" xmlns="http://www.w3.org/2000/svg">
<g id="X">
<path id="Vector" d="M11.747 10.6282C11.7877 10.6689 11.8199 10.7171 11.8419 10.7702C11.8639 10.8233 11.8752 10.8803 11.8752 10.9377C11.8752 10.9952 11.8639 11.0522 11.8419 11.1053C11.8199 11.1584 11.7877 11.2066 11.747 11.2473C11.7064 11.2879 11.6581 11.3202 11.605 11.3422C11.5519 11.3642 11.495 11.3755 11.4375 11.3755C11.38 11.3755 11.3231 11.3642 11.27 11.3422C11.2169 11.3202 11.1686 11.2879 11.128 11.2473L7.5 7.61876L3.87203 11.2473C3.78994 11.3294 3.6786 11.3755 3.5625 11.3755C3.4464 11.3755 3.33506 11.3294 3.25297 11.2473C3.17088 11.1652 3.12476 11.0538 3.12476 10.9377C3.12476 10.8216 3.17088 10.7103 3.25297 10.6282L6.88148 7.00024L3.25297 3.37227C3.17088 3.29018 3.12476 3.17884 3.12476 3.06274C3.12476 2.94665 3.17088 2.8353 3.25297 2.75321C3.33506 2.67112 3.4464 2.625 3.5625 2.625C3.6786 2.625 3.78994 2.67112 3.87203 2.75321L7.5 6.38173L11.128 2.75321C11.2101 2.67112 11.3214 2.625 11.4375 2.625C11.5536 2.625 11.6649 2.67112 11.747 2.75321C11.8291 2.8353 11.8752 2.94665 11.8752 3.06274C11.8752 3.17884 11.8291 3.29018 11.747 3.37227L8.11851 7.00024L11.747 10.6282Z" fill="#163300"/>
</g>
</svg>
