<svg width="18" height="22" viewBox="0 0 18 22" fill="none" xmlns="http://www.w3.org/2000/svg">
<path d="M14.9631 11.6902C14.9354 8.90337 17.2356 7.56677 17.3384 7.49929C16.0457 5.60908 14.0317 5.34972 13.3148 5.3202C11.6022 5.14626 9.97134 6.32903 9.10246 6.32903C8.23539 6.32903 6.893 5.34569 5.47279 5.37074C3.60452 5.39846 1.88246 6.45736 0.92104 8.12975C-1.01923 11.4957 0.42468 16.4839 2.31532 19.2156C3.23962 20.5509 4.3419 22.0534 5.78805 21.9983C7.18187 21.9433 7.70772 21.0969 9.39269 21.0969C11.0777 21.0969 11.5508 21.9983 13.0251 21.9702C14.5239 21.9429 15.4742 20.6094 16.3909 19.2689C17.4521 17.7176 17.889 16.2156 17.9149 16.1395C17.8822 16.1244 14.993 15.0176 14.9631 11.6902Z" fill="#0E0F0C"/>
<path d="M12.1931 3.51252C12.96 2.58152 13.4796 1.28785 13.3383 0C12.2315 0.0447171 10.8918 0.735595 10.0972 1.66571C9.38531 2.49119 8.76284 3.80542 8.92968 5.07002C10.1643 5.16571 11.4235 4.44174 12.1931 3.51252Z" fill="#0E0F0C"/>
</svg>
